<?xml version="1.0" encoding="utf-8"?>
<!-- Generator: Adobe Illustrator 24.1.0, SVG Export Plug-In . SVG Version: 6.00 Build 0)  -->
<svg version="1.1" id="Layer_1" xmlns="http://www.w3.org/2000/svg" xmlns:xlink="http://www.w3.org/1999/xlink" x="0px" y="0px"
	 viewBox="0 0 60 60" style="enable-background:new 0 0 60 60;" xml:space="preserve">
<style type="text/css">
	.st0{fill:#83C000;}
</style>
<g>
	<path class="st0" d="M30,60C13.5,60,0,46.5,0,30S13.5,0,30,0s30,13.5,30,30S46.5,60,30,60z M30,4.3C15.8,4.3,4.3,15.8,4.3,30
		S15.8,55.7,30,55.7S55.7,44.2,55.7,30S44.2,4.3,30,4.3z"/>
</g>
<g>
	<path class="st0" d="M12.5,38.8v-3.7h3.4v-8.9l-2.6,1.7l-1.4-3.3l5.2-3.4h2.8v13.9H23v3.7H12.5z"/>
	<path class="st0" d="M29.9,39.1c-1.8,0-3.3-0.4-4.3-1.3c-1.1-1-1.6-2.2-1.6-3.8c0-1,0.2-1.9,0.7-2.7c0.4-0.7,1-1.3,1.7-1.6
		c-0.6-0.4-1.1-0.9-1.4-1.6c-0.4-0.7-0.5-1.5-0.5-2.4c0-1.5,0.5-2.7,1.5-3.5c1-0.9,2.3-1.3,4-1.3s3,0.4,4,1.3s1.5,2,1.5,3.5
		c0,0.9-0.2,1.7-0.5,2.4c-0.4,0.7-0.8,1.2-1.4,1.6c0.7,0.3,1.3,0.9,1.7,1.6s0.6,1.6,0.6,2.6c0,1.6-0.5,2.8-1.6,3.7
		C33.2,38.6,31.8,39.1,29.9,39.1z M29.9,35.6c1.6,0,2.4-0.7,2.4-2s-0.8-2-2.4-2c-0.8,0-1.3,0.2-1.7,0.5c-0.4,0.3-0.6,0.8-0.6,1.5
		c0,0.6,0.2,1.1,0.6,1.5C28.6,35.5,29.2,35.6,29.9,35.6z M29.9,28.2c0.6,0,1.1-0.2,1.4-0.5s0.5-0.8,0.5-1.4s-0.2-1-0.5-1.4
		c-0.3-0.3-0.8-0.5-1.4-0.5s-1.1,0.2-1.4,0.5S28,25.7,28,26.3s0.2,1,0.5,1.4C28.9,28,29.3,28.2,29.9,28.2z"/>
	<path class="st0" d="M41.5,37.8v-4.7h-3.9v-2.9h3.9v-4.5h2.7v4.5h3.9v2.9h-3.9v4.7H41.5z"/>
</g>
</svg>
