<?xml version="1.0" encoding="utf-8"?>
<!-- Generator: Adobe Illustrator 26.0.0, SVG Export Plug-In . SVG Version: 6.00 Build 0)  -->
<svg version="1.1" id="Layer_1" xmlns="http://www.w3.org/2000/svg" xmlns:xlink="http://www.w3.org/1999/xlink" x="0px" y="0px"
	 viewBox="0 0 30 30" style="enable-background:new 0 0 30 30;" xml:space="preserve">
<style type="text/css">
	.st0{fill:#FFFFFF;}
</style>
<path class="st0" d="M2.6,9.2c0-0.1,0.1-0.2,0.1-0.3C3,8.5,3.3,8.2,3.8,8.2c0.1,0,0.1,0,0.2,0c7.3,0,14.6,0,21.9,0
	c0.2,0,0.3,0,0.5,0c0.8,0.2,1.2,1.2,0.7,1.8c-0.1,0.1-0.2,0.2-0.2,0.3c-3.6,3.7-7.3,7.4-10.9,11c-0.6,0.6-1.3,0.6-1.9,0
	c-3.6-3.6-7.2-7.2-10.8-10.8C3,10.2,2.7,10,2.6,9.6C2.6,9.5,2.6,9.3,2.6,9.2z"/>
</svg>
