<?xml version="1.0" encoding="utf-8"?>
<!-- Generator: Adobe Illustrator 26.0.0, SVG Export Plug-In . SVG Version: 6.00 Build 0)  -->
<svg version="1.1" id="Layer_1" xmlns="http://www.w3.org/2000/svg" xmlns:xlink="http://www.w3.org/1999/xlink" x="0px" y="0px"
	 viewBox="0 0 340 70" style="enable-background:new 0 0 340 70;" xml:space="preserve">
<style type="text/css">
	.st0{opacity:0.5;}
	.st1{fill:#FFFFFF;}
	.st2{fill:#FFD300;}
</style>
<g class="st0">
	<g>
		<g>
			<g>
				<path d="M114.5,43.2c0,0,3.8-7.8,3.8-19.2c0-2.2-0.3-4.1-0.5-5.9c-0.8-8.9-4.1-15.4-4.1-15.4c1.4,5.1,1.9,10.3,2.2,15.1
					c-0.8,0-1.9-0.3-2.7-0.3c-11.9,0-21.4,9.5-21.4,21.4c0,10.8,8.1,19.7,18.6,21.1c1.4,5.9,4.3,10,4.3,10c-1.1-3.5-1.9-6.8-2.2-10
					C111.5,50.3,114.5,43.2,114.5,43.2z"/>
			</g>
			<g>
				<path d="M23.9,25.7c1.6,0.5,2.7,0.8,2.7,0.8c0.5,0,0.8,0,1.4-0.3c0.3-0.3,0.5-0.5,0.8-1.1h1.1l0.5,10.3h-1.4
					c-0.5-2.2-1.4-3.8-2.4-4.9c-1.9-2.7-4.3-3.5-7.6-3.5s-5.9,1.4-7.8,3.8s-3,5.7-3,10.3c0,4.1,1.1,7.3,3.2,9.7s4.9,3.8,8.1,3.8
					c2.4,0,4.6-0.5,6.5-1.6c1.1-0.5,2.4-1.6,3.8-3l0.8,0.8c-1.1,1.4-2.2,2.4-3.8,3.5c-2.7,1.6-5.4,2.4-8.4,2.4
					c-4.9,0-8.9-1.6-11.6-4.6c-2.7-3-4.1-6.5-4.1-10.8c0-4.6,1.4-8.1,4.3-11.4c3-3.5,6.8-5.1,11.6-5.1C20.4,24.9,22,25.1,23.9,25.7z
					"/>
				<path d="M33.1,55.1c1.6-0.3,2.7-0.5,3.2-0.8c0.5-0.5,0.8-1.6,0.8-3.2V30.5c0-1.6-0.3-2.7-0.8-3.2c-0.5-0.5-1.6-0.8-3.2-0.8v-0.8
					h12.4c4.1,0,7.6,0.8,10.5,2.2c5.1,2.4,7.8,6.8,7.8,13.2c0,2.2-0.5,4.3-1.4,6.5s-2.4,3.8-4.3,5.1c-1.1,0.8-2.4,1.6-3.8,2.2
					c-2.4,0.8-5.1,1.4-8.6,1.4H33.1C33.1,56.2,33.1,55.1,33.1,55.1z M42.3,54.1c0.3,0.3,1.1,0.3,2.2,0.3c3.5,0,6.5-0.8,8.9-2.2
					c3.5-2.2,5.4-5.9,5.4-11.1c0-4.6-1.4-8.4-4.3-10.5c-2.4-2.2-5.9-3-10-3c-1.1,0-1.6,0-2.2,0.3c-0.3,0.3-0.5,0.8-0.5,1.4v23.2
					C41.8,53.2,42,53.8,42.3,54.1z"/>
				<path d="M68.5,46.8c0.8,2.2,1.6,3.8,2.7,4.9c1.9,2.2,4.1,3.2,6.8,3.2c1.4,0,2.7-0.5,3.8-1.4c1.1-0.8,1.6-2.2,1.6-3.8
					s-0.5-2.7-1.6-3.8c-0.8-0.8-2.2-1.6-4.3-3.2l-4.1-2.4c-1.1-0.8-2.2-1.6-2.7-2.2c-1.4-1.4-1.9-3-1.9-4.9c0-2.4,0.8-4.3,2.4-5.7
					c1.6-1.6,3.5-2.4,6.2-2.4c1.1,0,2.4,0.3,3.8,0.8c1.4,0.5,2.4,0.8,2.4,0.8c0.5,0,1.1,0,1.1-0.3c0.3-0.3,0.3-0.5,0.5-1.1h0.8
					l1.1,9.7h-1.1c-0.8-3-1.9-4.9-3.5-6.2c-1.6-1.1-3.2-1.6-4.9-1.6c-1.4,0-2.4,0.3-3.2,1.1c-0.8,0.8-1.4,1.9-1.4,3
					c0,1.1,0.3,2.2,1.1,3c0.8,0.8,1.9,1.6,3.2,2.7l4.1,2.4c2.4,1.6,4.3,3,5.4,4.3c1.1,1.4,1.6,3,1.6,4.6c0,2.4-0.8,4.3-2.7,5.9
					c-1.9,1.6-4.1,2.4-7,2.4c-1.4,0-3-0.3-4.3-0.8c-1.6-0.5-2.4-0.8-2.7-0.8c-0.5,0-0.8,0.3-1.1,0.5s-0.3,0.8-0.3,1.1h-1.1L68,47
					h0.5C68.5,47,68.5,46.8,68.5,46.8z"/>
			</g>
		</g>
	</g>
	<g>
		<g>
			<g>
				<g>
					<path d="M148,67.8h1.6V4.6H148V67.8z M179.9,52.2h-5.4L166.9,63l-1.1-10.8h-5.7l-0.3,0.5c0.5,0,1.1,0,1.4,0.3
						c0.3,0,0.5,0.3,0.8,0.8l-3.2,11.6c-0.3,0.8-0.8,1.6-1.4,1.9c-0.3,0-0.8,0-1.4,0v0.5h5.1v-0.5c-0.5,0-1.1-0.3-1.4-0.3
						c-0.3-0.3-0.3-0.5-0.3-0.8s0-0.5,0.3-1.1l3-10.3l1.4,13.2h0.5l8.9-13l-3.2,10c-0.3,0.8-0.5,1.6-1.1,1.9
						c-0.3,0.3-0.8,0.3-1.6,0.3l-0.3,0.5h7.8v-0.5c-0.8,0-1.1,0-1.4-0.3c-0.3-0.3-0.3-0.3-0.3-0.8c0-0.3,0-0.8,0.3-1.4l3-10
						c0.3-1.1,0.5-1.6,1.1-1.9C178.2,52.7,179.1,52.4,179.9,52.2L179.9,52.2z M186.4,57c-1.4,0-2.4,0.3-3.8,1.1
						c-1.4,0.8-2.2,1.9-3,3c-0.8,1.4-1.1,2.4-1.1,3.8c0,0.8,0.3,1.6,0.8,2.2s1.4,0.8,2.7,0.8c1.1,0,1.9-0.3,2.7-0.8
						c0.8-0.5,1.6-1.1,2.7-2.2l-0.3-0.3c-0.8,0.5-1.4,1.1-1.9,1.4c-0.5,0.3-1.1,0.3-1.6,0.3c-0.5,0-1.1-0.3-1.4-0.5
						c-0.3-0.3-0.5-0.8-0.5-1.4c0-0.3,0-0.8,0-1.4c0.8,0,1.6-0.3,2.2-0.3c0.8-0.3,1.6-0.5,2.2-1.1c0.8-0.5,1.4-1.1,1.6-1.6
						s0.5-1.1,0.5-1.6s-0.3-0.8-0.5-1.1C187.4,57.3,187.2,57,186.4,57z M185.3,60.3c-0.3,0.5-0.5,1.1-0.8,1.4
						c-0.3,0.3-0.8,0.5-1.1,0.8c-0.3,0.3-0.8,0.3-1.6,0.5c0.5-1.9,1.4-3.2,2.2-4.3c0.5-0.5,0.8-0.8,1.4-0.8c0.3,0,0.3,0,0.5,0.3
						c0,0,0.3,0.3,0.3,0.5C185.8,59.2,185.5,59.7,185.3,60.3z M198.2,66.2c-0.3,0-0.3,0.3-0.5,0.3c0,0,0,0-0.3,0c0,0,0,0,0-0.3
						s0-0.5,0.3-1.4l3.8-13h-0.8l-3.8,0.8v0.5c0.3,0,0.3,0,0.3,0c0.3,0,0.5,0,0.5,0.3c0.3,0,0.3,0.3,0.3,0.5s0,0.8-0.3,1.6l-0.8,3
						c-0.3-0.3-0.5-0.5-0.8-0.8c-0.3-0.3-0.5-0.3-0.8-0.3c-0.5,0-1.1,0.3-1.9,0.5c-0.5,0.3-1.4,0.8-1.9,1.6
						c-0.5,0.8-1.4,1.6-1.9,2.7c-0.5,1.1-0.8,2.2-0.8,3.5c0,0.8,0.3,1.6,0.5,2.2c0.3,0.5,0.8,0.8,1.4,0.8c0.5,0,1.1-0.3,1.6-0.5
						c0.8-0.5,1.6-1.6,2.4-3.5l-0.3,1.1c0.3,0,0.3,0.5,0.3,0.8s0,0.8,0.3,0.8c0.3,0.3,0.5,0.3,1.1,0.3c1.4,0,2.4-0.8,3.5-2.7
						l-0.5-0.3C198.8,65.7,198.5,66.2,198.2,66.2z M195.5,62.7c-0.5,1.4-1.4,2.4-1.9,3c-0.3,0.3-0.5,0.3-0.8,0.3
						c-0.3,0-0.3,0-0.5-0.3c0-0.3-0.3-0.5-0.3-0.8c0-1.1,0.3-2.2,0.8-3.8c0.5-1.6,1.1-2.4,1.6-3c0.3-0.3,0.5-0.3,0.8-0.3
						c0.3,0,0.5,0,0.5,0.3c0.3,0.3,0.3,0.5,0.3,1.1C196.4,60,196.1,61.1,195.5,62.7z M206.1,51.9c-0.5,0-0.8,0.3-1.1,0.5
						c-0.3,0.3-0.5,0.8-0.5,1.1c0,0.5,0.3,0.8,0.5,1.1c0.3,0.3,0.8,0.5,1.1,0.5c0.5,0,0.8-0.3,1.1-0.5c0.3-0.3,0.5-0.8,0.5-1.1
						c0-0.5-0.3-0.8-0.5-1.1C206.9,51.9,206.6,51.9,206.1,51.9z M206.6,57h-0.8l-3.8,0.5l-0.3,0.5c0.3,0,0.3,0,0.5,0
						c0.3,0,0.5,0,0.5,0.3c0.3,0,0.3,0.3,0.3,0.5s0,0.5-0.3,1.1l-1.6,5.4c0,0.5-0.3,0.8-0.3,1.1c0,0.5,0.3,0.8,0.5,1.1
						c0.3,0.3,0.8,0.5,1.1,0.5c1.4,0,2.4-1.1,3.8-3l-0.3-0.3c-0.5,0.8-0.8,1.4-1.4,1.6l-0.3,0.3h-0.3v-0.3c0-0.3,0-0.5,0.3-0.8
						L206.6,57z M216.6,64.9l2.2-7.6l-2.7,0.3l-0.5,1.4c0-0.5-0.3-1.1-0.5-1.4c-0.3-0.3-0.5-0.3-1.1-0.3c-0.8,0-1.6,0.3-2.4,1.1
						c-1.1,0.8-1.9,1.9-2.7,3.5c-0.5,1.4-1.1,2.7-1.1,3.8c0,0.8,0.3,1.4,0.5,1.9c0.3,0.5,0.8,0.8,1.6,0.8c0.5,0,1.1-0.3,1.6-0.5
						c0.8-0.5,1.6-1.6,2.7-3.2l-0.3,0.8c-0.3,0.8-0.3,1.4-0.3,1.6s0,0.5,0.3,0.8c0.3,0.3,0.5,0.3,1.1,0.3c0.8,0,1.4-0.3,1.9-0.8
						c0.5-0.5,1.1-1.1,1.6-2.2l-0.3-0.3c-0.5,0.5-0.8,1.1-0.8,1.1c-0.3,0.3-0.5,0.3-0.5,0.3h-0.3v-0.3v-0.3V64.9z M213.9,63.2
						c-0.5,0.8-0.8,1.6-1.4,2.2c-0.3,0.3-0.8,0.5-1.1,0.5c-0.3,0-0.3,0-0.5-0.3c0-0.3-0.3-0.5-0.3-0.8c0-1.1,0.3-2.4,0.8-3.8
						c0.5-1.4,1.1-2.4,1.6-3c0.3-0.3,0.5-0.3,0.8-0.3c0.3,0,0.5,0,0.5,0.3c0.3,0.3,0.3,0.8,0.3,1.4C215,60.5,214.7,61.9,213.9,63.2z
						 M225,58.9h1.6l0.3-1.4h-1.6l0.8-3.2h-0.5c-1.1,1.1-1.9,1.9-2.4,2.4c-0.5,0.5-1.6,0.8-2.4,1.4l-0.3,0.8h1.6l-1.9,6.2
						c-0.3,0.8-0.3,1.4-0.3,1.6c0,0.5,0.3,0.8,0.5,1.1c0.3,0.3,0.8,0.3,1.1,0.3c0.5,0,1.4-0.3,1.9-0.5c0.5-0.3,1.4-1.1,1.6-2.2
						l-0.3-0.3c-0.5,0.5-0.8,1.1-1.4,1.4c-0.3,0-0.3,0.3-0.3,0.3h-0.3v-0.3c0-0.3,0-0.5,0.3-0.8L225,58.9z M232.3,57h-0.8l-3.8,0.5
						l-0.3,0.5c0.3,0,0.3,0,0.5,0s0.5,0,0.5,0.3c0.3,0,0.3,0.3,0.3,0.5s0,0.5-0.3,1.1l-1.6,5.4c0,0.5-0.3,0.8-0.3,1.1
						c0,0.5,0.3,0.8,0.5,1.1c0.3,0.3,0.8,0.5,1.1,0.5c1.4,0,2.4-1.1,3.8-3l-0.3-0.3c-0.5,0.8-0.8,1.4-1.4,1.6l-0.3,0.3h-0.3v-0.3
						c0-0.3,0-0.5,0.3-0.8L232.3,57z M231.8,51.9c-0.5,0-0.8,0.3-1.1,0.5c-0.3,0.3-0.8,0.5-0.8,1.1c0,0.5,0.3,0.8,0.5,1.1
						c0.3,0.3,0.8,0.5,1.1,0.5c0.5,0,0.8-0.3,1.1-0.5c0.3-0.3,0.5-0.8,0.5-1.1c0-0.5-0.3-0.8-0.5-1.1
						C232.6,51.9,232,51.9,231.8,51.9z M242.6,57.6c-0.5-0.3-1.1-0.5-1.6-0.5c-0.8,0-1.9,0.3-2.7,0.5c-0.8,0.5-1.6,1.1-2.2,1.6
						c-0.5,0.8-1.1,1.6-1.6,2.4s-0.5,1.9-0.5,3c0,0.8,0.3,1.6,0.8,2.2c0.5,0.5,1.4,0.8,2.4,0.8s2.2-0.3,3.5-1.1
						c1.1-0.8,2.2-1.6,2.7-3c0.8-1.4,1.1-2.4,1.1-3.8c0-0.5-0.3-1.1-0.5-1.6C243.6,58.1,243.1,57.8,242.6,57.6z M240.9,62.2
						c-0.3,1.1-0.8,2.2-1.1,3.2c-0.5,1.1-0.8,1.6-1.4,1.9c-0.3,0.3-0.5,0.3-0.8,0.3c-0.3,0-0.5,0-0.8-0.3c-0.3-0.3-0.3-0.5-0.3-0.8
						c0-1.4,0.3-3,1.1-4.9c0.8-1.9,1.4-3,1.9-3.5c0.3-0.3,0.5-0.3,1.1-0.3c0.3,0,0.5,0,0.5,0.3c0.3,0.3,0.3,0.5,0.3,0.8
						C241.5,60,241.2,61.1,240.9,62.2z M256.3,65.4c-0.3,0.5-0.5,0.8-0.8,0.8h-0.3c0,0,0,0-0.3,0c0,0,0,0,0-0.3c0,0,0-0.5,0.3-0.8
						l1.4-4.9c0.3-0.5,0.3-1.1,0.3-1.6s-0.3-0.8-0.5-1.1s-0.5-0.5-1.1-0.5c-0.5,0-0.8,0.3-1.4,0.5c-0.5,0.3-1.1,0.8-1.9,1.6
						c-0.5,0.5-1.1,1.6-2.2,3l1.4-4.9h-0.8l-3.8,0.8v0.5c0.3,0,0.5,0,0.8,0c0.3,0,0.3,0,0.3,0.3v0.3c0,0.3,0,0.8-0.3,1.6l-2.2,7.3h3
						l0.8-3.5c1.1-1.9,1.9-3.5,3-4.6c0.5-0.3,0.8-0.5,1.1-0.5h0.3v0.3c0,0.3,0,0.3-0.3,0.8l-1.4,4.9c-0.3,0.5-0.3,1.1-0.3,1.4
						c0,0.3,0,0.8,0.3,0.8c0.3,0,0.5,0.3,1.1,0.3c1.4,0,2.4-1.1,3.5-3l-0.5-0.3C256.3,65.1,256.3,65.1,256.3,65.4z M277.4,52.4
						c-0.3,0-0.3,0.3-0.5,0.3s-0.8,0-1.4-0.3c-1.1-0.3-1.9-0.5-2.7-0.5c-1.4,0-2.7,0.5-3.5,1.4c-0.8,0.8-1.4,1.9-1.4,3
						c0,0.5,0.3,1.4,0.5,1.9c0.3,0.8,1.1,1.6,2.2,2.7s1.6,1.9,1.9,2.4c0.3,0.5,0.5,1.1,0.5,1.6c0,0.8-0.3,1.4-0.8,1.9
						c-0.5,0.5-1.1,0.8-1.9,0.8c-0.8,0-1.4-0.3-2.2-0.5s-1.1-1.1-1.4-1.6c-0.3-0.8-0.5-1.6-0.5-2.7h-0.5l-1.4,5.9h0.5
						c0.3-0.3,0.5-0.3,0.8-0.5c0.3,0,0.5,0,0.8,0s1.1,0,1.9,0.3c0.8,0.3,1.9,0.3,2.4,0.3c1.1,0,2.2-0.3,3-0.5
						c0.8-0.3,1.6-0.8,1.9-1.6c0.5-0.8,0.5-1.4,0.5-2.4c0-0.8-0.3-1.4-0.5-2.2c-0.3-0.5-0.8-1.4-1.9-2.2c-1.1-1.1-1.9-1.9-2.2-2.4
						c-0.3-0.5-0.5-1.1-0.5-1.6s0.3-1.1,0.5-1.6c0.5-0.5,1.1-0.8,1.6-0.8s1.1,0.3,1.6,0.5c0.5,0.3,1.1,1.1,1.4,1.6s0.3,1.1,0.5,1.9
						h0.3l1.4-5.4H278C277.7,52.2,277.4,52.4,277.4,52.4z M286.3,57c-1.4,0-2.4,0.3-3.8,1.1c-1.4,0.8-2.2,1.9-3,3
						c-0.8,1.4-1.1,2.4-1.1,3.8c0,0.8,0.3,1.6,0.8,2.2s1.4,0.8,2.7,0.8c1.1,0,1.9-0.3,2.7-0.8c0.8-0.5,1.6-1.1,2.7-2.2l-0.3-0.3
						c-0.8,0.5-1.4,1.1-1.9,1.4c-0.5,0.3-1.1,0.3-1.6,0.3s-1.1-0.3-1.4-0.5s-0.5-0.8-0.5-1.4c0-0.3,0-0.8,0-1.4
						c0.8,0,1.6-0.3,2.2-0.3c0.8-0.3,1.6-0.5,2.2-1.1c0.8-0.5,1.4-1.1,1.6-1.6c0.3-0.5,0.5-1.1,0.5-1.6s-0.3-0.8-0.5-1.1
						C287.7,57.3,287.2,57,286.3,57z M285.5,60.3c-0.3,0.5-0.5,1.1-0.8,1.4s-0.8,0.5-1.1,0.8c-0.3,0.3-0.8,0.3-1.6,0.5
						c0.5-1.9,1.4-3.2,2.2-4.3c0.5-0.5,0.8-0.8,1.4-0.8c0.3,0,0.3,0,0.5,0.3c0,0,0.3,0.3,0.3,0.5C285.8,59.2,285.8,59.7,285.5,60.3z
						 M297.2,57c-0.5,0-0.8,0.3-1.4,0.5c-0.8,0.8-1.9,2.7-3.2,5.9l1.6-6.5h-0.8l-3.5,0.8v0.3c0.3,0,0.5,0,0.8,0l0.3,0.3
						c0,0,0,0.3,0,0.5s0,0.5-0.3,1.1l-1.9,7.6h2.7c0.3-1.6,0.8-2.7,0.8-3.2c0.3-0.5,0.5-1.4,0.8-2.2s0.8-1.4,1.1-1.9
						c0.3-0.3,0.5-0.5,0.5-0.5h0.3c0,0,0,0,0.3,0c0,0,0.3,0.3,0.3,0.5c0.3,0.3,0.3,0.5,0.8,0.5c0.3,0,0.5-0.3,0.8-0.5
						c0.3-0.5,0.5-1.1,0.5-1.9c0-0.5,0-0.8-0.3-1.1C297.7,57.3,297.4,57,297.2,57z M307.2,57c-0.3,0-0.8,0-1.1,0.3s-0.3,0.5-0.3,1.1
						c0,0.3,0,0.3,0,0.5s0.3,0.5,0.5,0.8c0.3,0.3,0.3,0.8,0.3,1.1c0,0.5-0.3,1.1-0.5,1.6c-0.3,0.5-1.1,1.6-2.4,2.7
						c0-3.2-0.3-5.9-1.1-8.1l-3.8,1.1v0.5c0.3,0,0.3,0,0.5,0s0.5,0,0.5,0.3c0.3,0.3,0.3,0.5,0.5,0.8c0.3,0.5,0.3,1.6,0.5,3.2
						c0,1.6,0.3,3,0.3,3.8c0,0.3,0,0.8,0,1.4h0.5c1.9-1.6,3.5-3,4.3-4.1c0.5-0.5,1.1-1.1,1.6-1.9c0.5-0.8,0.8-1.4,1.1-1.9
						c0.3-0.5,0.3-1.1,0.3-1.6s-0.3-1.1-0.5-1.4C308,57.3,307.4,57,307.2,57z M314.2,51.9c-0.5,0-0.8,0.3-1.1,0.5
						c-0.3,0.3-0.5,0.8-0.5,1.1c0,0.5,0.3,0.8,0.5,1.1c0.3,0.3,0.8,0.5,1.1,0.5c0.5,0,0.8-0.3,1.1-0.5c0.3-0.3,0.5-0.8,0.5-1.1
						c0-0.5-0.3-0.8-0.5-1.1C315,51.9,314.7,51.9,314.2,51.9z M315,57h-0.8l-3.8,0.5l-0.3,0.5c0.3,0,0.3,0,0.5,0s0.5,0,0.5,0.3
						c0.3,0,0.3,0.3,0.3,0.5s0,0.5-0.3,1.1l-1.6,5.4c0,0.5-0.3,0.8-0.3,1.1c0,0.5,0.3,0.8,0.5,1.1s0.8,0.5,1.1,0.5
						c1.4,0,2.4-1.1,3.8-3l-0.3-0.3c-0.5,0.8-0.8,1.4-1.4,1.6l-0.3,0.3h-0.3v-0.3c0-0.3,0-0.5,0.3-0.8L315,57z M323.4,57
						c-1.1,0-2.2,0.3-3.2,1.1c-1.1,0.8-1.9,1.6-2.7,3s-1.1,2.4-1.1,3.8c0,0.5,0,1.1,0.3,1.6c0.3,0.5,0.5,1.1,1.1,1.4
						s1.1,0.5,1.9,0.5c1.1,0,1.9-0.3,3-0.8c0.8-0.5,1.4-1.1,2.2-1.9l-0.3-0.3c-0.5,0.5-1.1,0.8-1.6,1.1c-0.5,0.3-1.1,0.3-1.6,0.3
						s-1.1-0.3-1.4-0.5c-0.5-0.5-0.5-1.1-0.5-1.9c0-1.1,0.3-1.9,0.5-3s1.1-1.9,1.6-2.7c0.5-0.5,1.1-0.8,1.9-0.8c0.3,0,0.5,0,0.5,0.3
						l0.3,0.3c0,0.3-0.3,0.3-0.5,0.5c-0.5,0.3-0.5,0.5-0.5,1.1c0,0.3,0,0.5,0.3,0.8c0.3,0.3,0.5,0.3,0.8,0.3c0.5,0,0.8-0.3,1.1-0.5
						s0.5-0.8,0.5-1.4s-0.3-1.1-0.5-1.4C324.7,57.3,324.2,57,323.4,57z M332.3,63.2c0.8-0.3,1.6-0.5,2.2-1.1
						c0.8-0.5,1.4-1.1,1.6-1.6s0.5-1.1,0.5-1.6s-0.3-0.8-0.5-1.1s-0.8-0.5-1.4-0.5c-1.4,0-2.4,0.3-3.8,1.1s-2.2,1.9-3,3
						c-0.8,1.4-1.1,2.4-1.1,3.8c0,0.8,0.3,1.6,0.8,2.2c0.5,0.5,1.4,0.8,2.7,0.8c1.1,0,1.9-0.3,2.7-0.8s1.6-1.1,2.7-2.2l-0.3-0.3
						c-0.8,0.5-1.4,1.1-1.9,1.4c-0.5,0.3-1.1,0.3-1.6,0.3c-0.5,0-1.1-0.3-1.4-0.5s-0.5-0.8-0.5-1.4c0-0.3,0-0.8,0-1.4
						C330.9,63.5,331.8,63.2,332.3,63.2z M332.3,58.6c0.5-0.5,0.8-0.8,1.4-0.8c0.3,0,0.3,0,0.5,0.3c0,0,0.3,0.3,0.3,0.5
						c0,0.5,0,1.1-0.3,1.6c-0.3,0.5-0.5,1.1-0.8,1.4c-0.3,0.3-0.8,0.5-1.1,0.8c-0.3,0.3-0.8,0.3-1.6,0.5
						C330.7,61.1,331.5,59.7,332.3,58.6z M164.2,37.6c0.8,0,1.6,0.3,2.2,0.3c1.9,0,3.5-0.5,4.6-1.6c1.1-1.1,1.6-2.2,1.6-3.5
						s-0.5-2.4-1.6-3c-0.8-0.5-1.9-0.5-3.8-0.5h-6.2v0.5c0.5,0,1.1,0,1.4,0.3s0.3,0.5,0.3,0.8s0,0.8-0.3,1.4l-2.7,9.7
						c-0.3,0.8-0.5,1.4-0.5,1.6c-0.3,0.3-0.3,0.5-0.5,0.5c-0.3,0-0.8,0.3-1.4,0.3v0.5h7.6l0.3-0.5c-0.8,0-1.4,0-1.6-0.3
						c-0.3-0.3-0.3-0.5-0.3-0.8s0-0.8,0.3-1.4L164.2,37.6z M166.4,30c0.3,0,0.3,0,0.5,0c0.8,0,1.4,0.3,1.6,0.5
						c0.3,0.3,0.5,1.1,0.5,1.6c0,1.1-0.3,2.2-0.8,3c-0.5,1.1-1.4,1.4-2.4,1.4c-0.3,0-0.8,0-1.4,0L166.4,30z M175,29.7
						c0.5,0,0.8,0,1.1,0.3c0.3,0,0.3,0.3,0.3,0.5c0,0.3,0,0.5-0.3,1.1l-3.2,10.5c-0.3,0.5-0.3,1.1-0.3,1.4s0.3,0.8,0.5,1.1
						s0.8,0.5,1.1,0.5c0.5,0,1.1-0.3,1.6-0.5c0.8-0.5,1.4-1.4,2.2-2.4l-0.5-0.3c-0.5,0.8-0.8,1.4-1.4,1.6l-0.3,0.3h-0.3v-0.3
						c0-0.3,0-0.5,0.3-1.4l3.8-13h-0.8L175,30L175,29.7z M188,41.9l2.2-7.6l-2.7,0.3l-0.5,1.4c0-0.5-0.3-1.1-0.5-1.4
						c-0.3-0.3-0.5-0.3-1.1-0.3c-0.8,0-1.6,0.3-2.4,1.1c-1.1,0.8-1.9,1.9-2.7,3.5c-0.5,1.4-1.1,2.7-1.1,3.8c0,0.8,0.3,1.4,0.5,1.9
						c0.3,0.5,0.8,0.8,1.6,0.8c0.5,0,1.1-0.3,1.6-0.5c0.8-0.5,1.6-1.6,2.7-3.2l-0.3,0.8c-0.3,0.8-0.3,1.4-0.3,1.6s0,0.5,0.3,0.8
						c0.3,0.3,0.5,0.3,1.1,0.3c0.8,0,1.4-0.3,1.9-0.8c0.5-0.5,1.1-1.1,1.6-2.2l-0.3-0.3c-0.5,0.5-0.8,1.1-0.8,1.1
						c-0.3,0.3-0.5,0.3-0.5,0.3H188V43v-0.3V41.9z M185.5,40.3c-0.5,0.8-0.8,1.6-1.4,2.2c-0.3,0.3-0.8,0.5-1.1,0.5s-0.3,0-0.5-0.3
						c0-0.3-0.3-0.5-0.3-0.8c0-1.1,0.3-2.4,0.8-3.8c0.5-1.4,1.1-2.4,1.6-3c0.3-0.3,0.5-0.3,0.8-0.3s0.5,0,0.5,0.3
						c0.3,0.3,0.3,0.8,0.3,1.4C186.6,37.3,186.4,38.6,185.5,40.3z M190.4,49.7c0.3,0,0.5,0,1.1-0.3c0.5-0.3,1.1-0.5,1.6-1.1
						c0.5-0.5,1.1-1.1,2.2-2.2c1.4-1.6,2.7-3.2,4.1-5.4c1.1-1.6,1.6-2.7,1.9-3.5c0.3-0.8,0.5-1.4,0.5-1.9c0-0.5-0.3-0.8-0.5-1.1
						c-0.3-0.3-0.8-0.5-1.1-0.5s-0.8,0.3-1.1,0.5c-0.3,0.3-0.5,0.5-0.5,1.1c0,0.3,0,0.5,0.3,0.5c0.3,0,0.3,0.3,0.8,0.5
						c0.5,0.3,0.5,0.5,0.5,0.8c0,0.5-0.3,1.1-0.5,1.6c-1.1,1.9-1.9,3.2-2.7,4.3c0-2.2-0.3-4.1-0.3-5.9c0-1.1-0.3-1.6-0.5-2.2
						c0-0.3-0.3-0.5-0.5-1.1l-3.8,0.8v0.5c0.3,0,0.3,0,0.5,0c0.3,0,0.5,0,0.8,0.3c0.3,0.3,0.5,0.8,0.5,1.6l0.3,4.3
						c0,1.1,0,2.2,0,2.7c0,0.5,0,1.4,0,2.2c-0.5,0.5-0.8,0.8-1.1,0.8c-0.3,0-0.3,0.3-0.5,0.3c-0.3,0-0.3-0.3-0.5-0.5
						c-0.3-0.5-0.8-0.8-1.4-0.8c-0.3,0-0.8,0.3-1.1,0.5s-0.5,0.5-0.5,1.1c0,0.5,0.3,0.8,0.5,1.1C189.6,49.5,189.9,49.7,190.4,49.7z
						 M207.7,40c0.8-0.3,1.6-0.5,2.2-1.1c0.8-0.5,1.4-1.1,1.6-1.6c0.3-0.5,0.5-1.1,0.5-1.6s-0.3-0.8-0.5-1.1
						c-0.3-0.3-0.8-0.5-1.4-0.5c-1.4,0-2.4,0.3-3.8,1.1c-1.4,0.8-2.2,1.9-3,3c-0.8,1.4-1.1,2.4-1.1,3.8c0,0.8,0.3,1.6,0.8,2.2
						c0.5,0.5,1.4,0.8,2.7,0.8c1.1,0,1.9-0.3,2.7-0.8c0.8-0.5,1.6-1.1,2.7-2.2l-0.3-0.3c-0.8,0.5-1.4,1.1-1.9,1.4s-1.1,0.3-1.6,0.3
						c-0.5,0-1.1-0.3-1.4-0.5c-0.3-0.3-0.5-0.8-0.5-1.4c0-0.3,0-0.8,0-1.4C206.4,40.3,207.2,40,207.7,40z M207.7,35.4
						c0.5-0.5,0.8-0.8,1.4-0.8c0.3,0,0.3,0,0.5,0.3c0,0,0.3,0.3,0.3,0.5c0,0.5,0,1.1-0.3,1.6c-0.3,0.5-0.5,1.1-0.8,1.4
						c-0.3,0.3-0.8,0.5-1.1,0.8c-0.3,0.3-0.8,0.3-1.6,0.5C206.1,37.8,206.9,36.5,207.7,35.4z M220.7,37.6c0.3,0,0.5-0.3,0.8-0.5
						c0.3-0.5,0.5-1.1,0.5-1.9c0-0.5,0-0.8-0.3-1.1s-0.5-0.3-0.8-0.3c-0.5,0-0.8,0.3-1.4,0.5c-0.8,0.8-1.9,2.7-3.2,5.9l1.6-6.5h-0.8
						l-3.5,0.8v0.3c0.3,0,0.5,0,0.8,0l0.3,0.3c0,0,0,0.3,0,0.5s0,0.5-0.3,1.1l-1.9,7.6h2.7c0.3-1.6,0.8-2.7,0.8-3.2
						c0.3-0.5,0.5-1.4,0.8-2.2c0.3-0.8,0.8-1.4,1.1-1.9c0.3-0.5,0.5-0.5,0.5-0.5h0.3c0,0,0,0,0.3,0c0,0,0.3,0.3,0.3,0.5
						C220.1,37.6,220.4,37.6,220.7,37.6z M236.6,28.9h-5.4v0.5c0.8,0,1.4,0.3,1.6,0.3c0.3,0.3,0.3,0.5,0.3,0.8c0,0.5,0,0.8-0.3,1.6
						l-2.7,9.7c-0.3,0.8-0.5,1.4-1.1,1.6c-0.3,0.3-1.1,0.5-1.6,0.5l-0.3,0.5h6.5c2.4,0,4.3-0.5,5.9-1.4c1.6-0.8,3-2.2,4.1-4.1
						c0.5-1.1,0.8-2.2,0.8-3.8c0-2.2-0.5-3.8-1.9-4.9C241.5,29.5,239.3,28.9,236.6,28.9z M239.9,39.2c-0.5,1.4-1.4,2.7-2.4,3.5
						c-0.8,0.8-1.9,1.1-3,1.1c-0.5,0-0.8,0-1.1-0.3c-0.3,0-0.3-0.3-0.3-0.5c0-0.3,0-0.5,0.3-1.1l3.5-11.9c0.8,0,1.4,0.3,1.9,0.5
						c0.8,0.5,1.1,1.1,1.6,1.9c0.3,0.8,0.5,1.6,0.5,2.7C240.7,36.2,240.4,37.8,239.9,39.2z M251.2,34.1h-0.8l-3.8,0.5l-0.3,0.5
						c0.3,0,0.3,0,0.5,0c0.3,0,0.5,0,0.5,0.3c0.3,0,0.3,0.3,0.3,0.5c0,0.3,0,0.5-0.3,1.1l-1.6,5.4c0,0.5-0.3,0.8-0.3,1.1
						c0,0.5,0.3,0.8,0.5,1.1s0.8,0.5,1.1,0.5c1.4,0,2.4-1.1,3.8-3l-0.3-0.3c-0.5,0.8-0.8,1.4-1.4,1.6l-0.3,0.3h-0.3v-0.3
						c0-0.3,0-0.5,0.3-0.8L251.2,34.1z M252.3,30.3c0-0.5-0.3-0.8-0.5-1.1c-0.3-0.3-0.8-0.5-1.1-0.5c-0.5,0-0.8,0.3-1.1,0.5
						c-0.5,0.3-0.8,0.5-0.8,1.1s0.3,0.8,0.5,1.1c0.3,0.3,0.8,0.5,1.1,0.5c0.5,0,0.8-0.3,1.1-0.5C251.8,31.1,252.3,30.8,252.3,30.3z
						 M259.3,43.2c0.3-0.5,0.5-1.1,0.5-1.6s0-1.1-0.3-1.6c-0.3-0.5-1.1-1.4-2.2-2.7c-0.3-0.3-0.5-0.5-0.5-0.8c0-0.3-0.3-0.5-0.3-0.8
						s0-0.5,0.3-0.8s0.5-0.3,0.8-0.3c0.5,0,1.1,0.3,1.6,0.8c0.5,0.5,0.8,1.4,0.8,2.2h0.5l0.5-3.5h-0.5c-0.3,0.3-0.5,0.3-0.8,0.3
						c-0.3,0-0.5,0-0.8,0c-0.8-0.3-1.4-0.3-1.6-0.3c-1.1,0-1.9,0.3-2.4,0.8c-0.5,0.5-0.8,1.4-0.8,2.2c0,0.5,0,0.8,0.3,1.4
						c0.3,0.5,0.8,1.4,1.9,2.2c0.5,0.8,1.1,1.4,1.4,1.6c0.3,0.3,0.3,0.8,0.3,1.1c0,0.3-0.3,0.8-0.5,1.1c-0.3,0.3-0.5,0.3-1.1,0.3
						c-0.3,0-0.8,0-1.1-0.3c-0.3-0.3-0.8-0.5-0.8-0.8c-0.3-0.3-0.5-1.1-0.8-1.9h-0.3l-0.5,3.8h0.5c0-0.3,0.3-0.3,0.3-0.3
						s0.3,0,0.5,0s0.5,0,1.1,0.3c0.5,0.3,1.1,0.3,1.6,0.3c0.5,0,1.4-0.3,1.9-0.5C258.5,44.1,258.8,43.8,259.3,43.2z M265,49.2
						c-0.5,0-1.1-0.3-1.1-0.3c-0.3-0.3-0.3-0.3-0.3-0.5s0-1.1,0.3-1.6l0.5-2.2c0.3,0.3,0.5,0.3,0.8,0.3c0.3,0,0.5,0,0.8,0
						c1.6,0,3-0.8,4.3-2.2c1.6-1.6,2.2-3.8,2.2-5.9c0-0.8-0.3-1.6-0.5-2.2c-0.3-0.5-1.1-0.8-1.6-0.8s-1.1,0-1.6,0.3
						c-0.5,0.3-1.1,0.8-1.9,1.6l0.5-1.9h-0.8l-3.8,0.5v0.5c0.5,0,0.8,0,0.8,0s0.3,0,0.3,0.3v0.3c0,0.3,0,0.8-0.3,1.6l-2.7,9.7
						c-0.3,1.1-0.5,1.6-0.8,1.9c-0.3,0.3-0.8,0.5-1.4,0.5v0.5h6.2V49.2z M266.6,37c0.5-0.5,0.8-0.8,1.4-1.1c0.3-0.3,0.5-0.3,0.8-0.3
						c0.3,0,0.5,0,0.8,0.3c0.3,0.3,0.3,0.8,0.3,1.4c0,0.8,0,1.6-0.3,2.4c-0.3,0.8-0.5,1.6-0.8,2.2c-0.3,0.5-0.5,1.1-1.1,1.6
						c-0.3,0.5-0.5,0.8-0.8,0.8s-0.5,0.3-0.8,0.3c-0.3,0-0.5,0-0.5-0.3c-0.3,0-0.3-0.3-0.5-0.8L266.6,37z M275.8,44.9
						c0.5,0,0.8,0,1.4-0.3s1.1-0.8,1.6-1.6c0.5-0.5,1.1-1.6,2.2-3l-0.5,1.9c-0.3,0.5-0.3,1.1-0.3,1.6c0,0.3,0.3,0.8,0.5,1.1
						s0.5,0.3,1.1,0.3c1.4,0,2.4-1.1,3.5-3l-0.3-0.3c-0.5,0.8-0.8,1.1-1.1,1.4l-0.3,0.3c0,0,0,0-0.3,0c0,0,0,0,0-0.3
						c0,0,0-0.5,0.3-1.1l2.2-7.6h-3l-1.1,3.5c-0.8,1.6-1.9,3-2.7,4.1c-0.5,0.5-1.1,0.8-1.4,0.8h-0.3c0,0,0,0,0-0.3s0-0.3,0.3-0.8
						l2.2-7.8h-0.8l-4.1,0.8v0.5c0.3,0,0.5,0,0.8,0c0.3,0,0.3,0,0.3,0.3v0.3c0,0.3,0,0.8-0.3,1.6l-1.4,4.6c-0.3,0.5-0.3,1.1-0.3,1.6
						s0.3,0.8,0.5,1.1C275,44.9,275.5,44.9,275.8,44.9z M292.6,42.2l-0.3-0.3c-0.5,0.5-0.8,1.1-1.4,1.4c-0.3,0-0.3,0.3-0.3,0.3h-0.3
						v-0.3c0-0.3,0-0.5,0.3-0.8l1.9-6.8h1.6l0.3-1.4h-1.6l0.8-3.2h-0.5c-1.1,1.1-1.9,1.9-2.4,2.4c-0.8,0.5-1.6,0.8-2.4,1.4l-0.3,0.8
						h1.6l-1.9,6.2c-0.3,0.8-0.3,1.4-0.3,1.6c0,0.5,0.3,0.8,0.5,1.1c0.3,0.3,0.8,0.3,1.1,0.3c0.5,0,1.4-0.3,1.9-0.5
						C291.5,43.8,292,43.2,292.6,42.2z M295,44.1c0.5,0.5,1.4,0.8,2.7,0.8c1.1,0,1.9-0.3,2.7-0.8c0.8-0.5,1.6-1.1,2.7-2.2l-0.3-0.3
						c-0.8,0.5-1.4,1.1-1.9,1.4s-1.1,0.3-1.6,0.3c-0.5,0-1.1-0.3-1.4-0.5c-0.3-0.3-0.5-0.8-0.5-1.4c0-0.3,0-0.8,0-1.4
						c0.8,0,1.6-0.3,2.2-0.3c0.8-0.3,1.6-0.5,2.2-1.1c0.8-0.5,1.4-1.1,1.6-1.6c0.3-0.5,0.5-1.1,0.5-1.6s-0.3-0.8-0.5-1.1
						c-0.3-0.3-0.8-0.5-1.4-0.5c-1.4,0-2.4,0.3-3.8,1.1c-1.4,0.8-2.2,1.9-3,3c-0.8,1.4-1.1,2.4-1.1,3.8
						C294.2,42.7,294.5,43.5,295,44.1z M299.6,35.4c0.5-0.5,0.8-0.8,1.4-0.8c0.3,0,0.3,0,0.5,0.3c0,0,0.3,0.3,0.3,0.5
						c0,0.5,0,1.1-0.3,1.6c-0.3,0.5-0.5,1.1-0.8,1.4c-0.3,0.3-0.8,0.5-1.1,0.8c-0.3,0.3-0.8,0.3-1.6,0.5
						C298,37.8,298.8,36.5,299.6,35.4z M305.3,44.6c0,0,0.3,0,0.5,0s0.5,0,1.1,0.3s1.1,0.3,1.6,0.3s1.4-0.3,1.9-0.5
						c0.5-0.3,1.1-0.8,1.4-1.4c0.3-0.5,0.5-1.1,0.5-1.6c0-0.5,0-1.1-0.3-1.6c-0.3-0.5-1.1-1.4-2.2-2.7c-0.3-0.3-0.5-0.5-0.5-0.8
						s-0.3-0.5-0.3-0.8c0-0.3,0-0.5,0.3-0.8c0.3-0.3,0.5-0.3,0.8-0.3c0.5,0,1.1,0.3,1.6,0.8c0.5,0.5,0.8,1.4,0.8,2.2h0.5l0.5-3.5
						h-0.5c-0.3,0.3-0.5,0.3-0.8,0.3s-0.5,0-0.8,0c-0.8-0.3-1.4-0.3-1.6-0.3c-1.1,0-1.9,0.3-2.4,0.8c-0.5,0.5-0.8,1.4-0.8,2.2
						c0,0.5,0,0.8,0.3,1.4c0.3,0.5,0.8,1.4,1.9,2.2c0.5,0.8,1.1,1.4,1.4,1.6s0.3,0.8,0.3,1.1s-0.3,0.8-0.5,1.1
						c-0.3,0.3-0.5,0.3-1.1,0.3c-0.3,0-0.8,0-1.1-0.3s-0.8-0.5-0.8-0.8c-0.3-0.3-0.5-1.1-0.8-1.9h-0.3l-0.5,3.8h0.5
						C305,44.9,305,44.6,305.3,44.6z M325,44.9c0.8,0,1.6-0.3,2.4-0.5c0.8-0.3,1.6-0.8,2.4-1.4c0.5,0.5,1.1,1.1,1.6,1.4
						c0.5,0.3,1.1,0.3,1.6,0.3c0.8,0,1.4-0.3,2.2-0.5c0.5-0.3,1.1-1.1,1.4-1.9h-0.3c-0.3,0.3-0.5,0.3-0.5,0.5c-0.3,0-0.3,0-0.5,0
						c-0.5,0-0.8,0-1.1-0.3c-0.5-0.3-1.1-0.8-1.6-1.9c0.5-0.5,1.1-1.1,1.6-1.9c0.8-1.1,1.4-1.6,1.6-1.9s0.5-0.5,1.1-0.5l0.3-0.5
						h-4.3l-0.3,0.5c0.3,0,0.5,0.3,0.8,0.3c0.3,0.3,0.3,0.3,0.3,0.5c0,0.3,0,0.5-0.3,1.1c-0.3,0.5-0.5,0.8-0.8,1.4
						c-0.3-0.5-0.5-1.1-0.8-1.6c-0.3-0.5-0.5-1.6-1.1-3.2c1.6-0.8,2.7-1.4,3.5-2.4c0.5-0.5,0.8-1.4,0.8-2.2c0-0.5-0.3-1.1-0.8-1.6
						c-0.5-0.5-1.1-0.8-1.9-0.8c-1.4,0-2.4,0.5-3.2,1.6c-1.1,1.1-1.4,2.2-1.4,3.8c0,0.3,0,0.5,0,0.8s0,0.8,0,1.1
						c-1.6,0.8-2.7,1.4-3.5,1.9c-0.8,0.5-1.4,1.4-1.6,1.9c-0.3,0.5-0.5,1.1-0.5,1.9c0,0.8,0.3,1.6,1.1,2.4
						C322.8,44.6,323.6,44.9,325,44.9z M329.9,30c0.3-0.3,0.5-0.5,0.8-0.5s0.5,0,0.8,0.3s0.3,0.8,0.3,1.4c0,0.8-0.3,1.4-0.5,2.2
						c-0.3,0.5-0.8,0.8-1.4,1.4c0-0.5-0.3-1.1-0.3-1.4c0-0.5,0-0.8,0-1.4C329.3,31.1,329.6,30.3,329.9,30z M325,38.4
						c0.3-0.5,1.1-1.1,1.9-1.6c0.3,1.1,0.5,1.9,1.1,3c0.5,1.1,0.8,1.9,1.4,2.7c-0.5,0.3-0.8,0.5-1.1,0.5c-0.3,0-0.8,0.3-1.1,0.3
						c-0.8,0-1.4-0.3-1.9-0.8c-0.5-0.5-0.8-1.4-0.8-2.2C324.5,39.5,324.7,38.9,325,38.4z M163.9,19.2c-0.8,0-1.4,0-1.6-0.3
						c-0.3-0.3-0.3-0.3-0.3-0.5c0-0.3,0-0.8,0.3-1.4l3-10c0.3-1.1,0.5-1.6,1.1-1.9c0.3-0.3,0.8-0.5,1.6-0.5l0.3-0.5h-7.6v0.5
						c0.8,0,1.4,0.3,1.6,0.3c0.3,0,0.3,0.3,0.3,0.5s0,0.8-0.3,1.4l-3,10c-0.3,1.1-0.5,1.6-1.1,1.9c-0.3,0.3-0.8,0.5-1.6,0.5v0.5h7.8
						L163.9,19.2z M168.5,10C168.8,10,168.8,10,168.5,10l0.3,0.5c0,0.3,0,0.8-0.3,1.6l-2.2,7.3h3l1.1-3.5c1.1-1.9,1.9-3.5,3-4.6
						c0.5-0.3,0.8-0.5,1.1-0.5h0.3v0.3c0,0.3,0,0.3-0.3,0.8l-1.4,4.9c0,0.8,0,1.4,0,1.6c0,0.3,0,0.8,0.3,0.8
						c0.3,0.3,0.5,0.3,1.1,0.3c1.4,0,2.4-1.1,3.5-3l-0.5-0.3c-0.3,0.3-0.3,0.3-0.3,0.5c-0.3,0.5-0.5,0.8-0.8,0.8h-0.3c0,0,0,0-0.3,0
						c0,0,0,0,0-0.3c0,0,0-0.5,0.3-0.8l1.4-4.9c0.3-0.5,0.3-1.1,0.3-1.6c0-0.5-0.3-0.8-0.5-1.1c-0.3-0.3-0.5-0.5-1.1-0.5
						s-0.8,0.3-1.4,0.5c-0.5,0.3-1.1,0.8-1.9,1.6c-0.5,0.5-1.1,1.6-2.2,3l1.4-4.9h-0.8l-3.8,0.8V10C168.2,10,168.5,10,168.5,10z
						 M182,19.7c0.5,0,1.1-0.3,1.6-0.5c0.8-0.5,1.6-1.6,2.4-3.5l-0.3,1.1c-0.3,0.5-0.3,1.1-0.3,1.6c0,0.3,0,0.8,0.3,0.8
						c0.3,0.3,0.5,0.3,1.1,0.3c1.4,0,2.4-0.8,3.5-2.7l-0.5-0.3c-0.5,0.5-0.8,1.1-1.1,1.4c-0.3,0-0.3,0.3-0.5,0.3c0,0,0,0-0.3,0
						c0,0,0,0,0-0.3c0-0.3,0-0.5,0.3-1.4l3.8-13h-0.8l-3.8,0.8v0.5c0.3,0,0.3,0,0.3,0c0.3,0,0.5,0,0.5,0.3s0.3,0.3,0.3,0.5
						s0,0.8-0.3,1.6l-0.8,3c-0.3-0.3-0.5-0.5-0.8-0.8c-0.3,0-0.5-0.3-0.8-0.3c-0.5,0-1.1,0.3-1.9,0.5c-0.5,0.3-1.4,0.8-1.9,1.6
						c-0.5,0.8-1.4,1.6-1.9,2.7s-0.8,2.2-0.8,3.5c0,0.8,0.3,1.6,0.5,2.2C180.1,20.3,181.5,19.7,182,19.7z M183.9,12.7
						c0.5-1.6,1.1-2.4,1.6-3c0.3-0.3,0.5-0.3,0.8-0.3c0.3,0,0.5,0,0.5,0.3s0.3,0.5,0.3,1.1c0,0.8-0.3,1.9-1.1,3.5
						c-0.5,1.4-1.4,2.4-1.9,3c-0.3,0.3-0.5,0.3-0.8,0.3c-0.3,0-0.3,0-0.5-0.3c0-0.3-0.3-0.5-0.3-0.8
						C183.1,15.7,183.4,14.3,183.9,12.7z M192.8,18.9c0.5,0.5,1.4,0.8,2.7,0.8c1.1,0,1.9-0.3,2.7-0.8s1.6-1.1,2.7-2.2l-0.3-0.3
						c-0.8,0.5-1.4,1.1-1.9,1.4c-0.5,0.3-1.1,0.3-1.6,0.3c-0.5,0-1.1-0.3-1.4-0.5c-0.3-0.3-0.5-0.8-0.5-1.4c0-0.3,0-0.8,0-1.4
						c0.8,0,1.6-0.3,2.2-0.3c0.8-0.3,1.6-0.5,2.2-1.1c0.8-0.5,1.4-1.1,1.6-1.6c0.3-0.5,0.5-1.1,0.5-1.6c0-0.5-0.3-0.8-0.5-1.1
						c-0.3-0.3-0.8-0.5-1.4-0.5c-1.4,0-2.4,0.3-3.8,1.1c-1.4,0.8-2.2,1.9-3,3c-0.8,1.4-1.1,2.4-1.1,3.8
						C192.3,17.6,192.6,18.4,192.8,18.9z M197.7,10.3c0.5-0.5,0.8-0.8,1.4-0.8c0.3,0,0.3,0,0.5,0.3c0,0,0.3,0.3,0.3,0.5
						c0,0.5,0,1.1-0.3,1.6c-0.3,0.5-0.5,1.1-0.8,1.4c-0.3,0.3-0.8,0.5-1.1,0.8c-0.3,0.3-0.8,0.3-1.6,0.5
						C196.1,12.7,196.6,11.4,197.7,10.3z M204.7,10.3L204.7,10.3c0,0.5,0,1.1-0.3,1.9l-2.7,9.7c-0.3,1.1-0.5,1.6-0.8,1.9
						c-0.5,0.3-0.8,0.3-1.4,0.3v0.5h6.2v-0.5c-0.5,0-1.1-0.3-1.1-0.3c-0.3-0.3-0.3-0.3-0.3-0.5c0-0.3,0-1.1,0.3-1.6l0.5-2.2
						c0.3,0.3,0.5,0.3,0.8,0.3c0.3,0,0.5,0,0.8,0c1.6,0,3-0.8,4.3-2.2c1.6-1.6,2.4-3.8,2.4-5.9c0-0.8-0.3-1.6-0.5-2.2
						s-1.1-0.8-1.6-0.8c-0.5,0-1.1,0-1.6,0.3c-0.5,0.3-1.1,0.8-1.9,1.6l0.3-1.6h-0.8l-3.8,0.5V10C204.2,10,204.5,10,204.7,10.3
						C204.7,10,204.7,10,204.7,10.3z M207.4,11.9c0.5-0.5,0.8-0.8,1.4-1.1c0-0.3,0.3-0.3,0.5-0.3c0.3,0,0.5,0,0.8,0.3
						c0.3,0.3,0.3,0.8,0.3,1.4c0,0.8,0,1.6-0.3,2.4s-0.5,1.6-0.8,2.2c-0.3,0.5-0.5,1.1-1.1,1.6c0,0.3-0.5,0.5-0.5,0.8
						c-0.3,0-0.5,0.3-0.8,0.3c-0.3,0-0.5,0-0.5-0.3c-0.3,0-0.3-0.3-0.5-0.8L207.4,11.9z M218.2,19.7c1.1,0,1.9-0.3,2.7-0.8
						c0.8-0.5,1.6-1.1,2.7-2.2l-0.3-0.3c-0.8,0.5-1.4,1.1-1.9,1.4c-0.5,0.3-1.1,0.3-1.6,0.3s-1.1-0.3-1.4-0.5
						c-0.3-0.3-0.5-0.8-0.5-1.4c0-0.3,0-0.8,0-1.4c0.8,0,1.6-0.3,2.2-0.3c0.8-0.3,1.6-0.5,2.2-1.1c0.8-0.5,1.4-1.1,1.6-1.6
						c0.3-0.5,0.5-1.1,0.5-1.6c0-0.5-0.3-0.8-0.5-1.1c-0.3-0.3-0.8-0.5-1.4-0.5c-1.4,0-2.4,0.3-3.8,1.1c-1.4,0.8-2.2,1.9-3,3
						c-0.8,1.4-1.1,2.4-1.1,3.8c0,0.8,0.3,1.6,0.8,2.2C216.1,19.5,217.2,19.7,218.2,19.7z M220.4,10.3c0.5-0.5,0.8-0.8,1.4-0.8
						c0.3,0,0.3,0,0.5,0.3c0,0,0.3,0.3,0.3,0.5c0,0.5,0,1.1-0.3,1.6c-0.3,0.5-0.5,1.1-0.8,1.4c-0.3,0.3-0.8,0.5-1.1,0.8
						c-0.3,0.3-0.8,0.3-1.6,0.5C218.8,12.7,219.6,11.4,220.4,10.3z M225.5,19.5h3l0.8-3.5c1.1-1.9,1.9-3.5,3-4.6
						c0.5-0.3,0.8-0.5,1.1-0.5h0.3v0.3c0,0.3,0,0.3-0.3,0.8l-1.4,4.9c-0.3,0.5-0.3,1.1-0.3,1.4c0,0.3,0,0.8,0.3,0.8
						c0.3,0.3,0.5,0.3,1.1,0.3c1.4,0,2.4-1.1,3.5-3l-0.5-0.3c-0.3,0.3-0.3,0.3-0.3,0.5c-0.3,0.5-0.5,0.8-0.8,0.8h-0.3c0,0,0,0-0.3,0
						c0,0,0,0,0-0.3c0,0,0-0.5,0.3-0.8l1.4-4.9c0.3-0.5,0.3-1.1,0.3-1.6s-0.3-0.8-0.5-1.1c-0.3-0.3-0.5-0.5-1.1-0.5
						c-0.5,0-0.8,0.3-1.4,0.5c-0.5,0.3-1.1,0.8-1.9,1.6c-0.5,0.5-1.1,1.6-2.2,3l1.4-4.9h-0.8l-3.8,0.8v0.5c0.3,0,0.5,0,0.8,0
						c0.3,0,0.3,0,0.3,0.3v0.3c0,0.3,0,0.8-0.3,1.6L225.5,19.5z M249.3,17l-0.5-0.3c-0.5,0.5-0.8,1.1-1.1,1.4
						c-0.3,0-0.3,0.3-0.5,0.3c0,0,0,0-0.3,0c0,0,0,0,0-0.3c0-0.3,0-0.5,0.3-1.4l4.3-13.2h-0.8l-3.8,0.8v0.5c0.3,0,0.3,0,0.3,0
						c0.3,0,0.5,0,0.5,0.3s0.3,0.3,0.3,0.5s0,0.8-0.3,1.6l-0.8,3c-0.5-0.8-0.8-1.1-0.8-1.4c-0.3,0-0.5-0.3-0.8-0.3
						c-0.5,0-1.1,0.3-1.9,0.5c-0.5,0.3-1.4,0.8-1.9,1.6s-1.4,1.6-1.9,2.7c-0.5,1.1-0.5,2.4-0.5,3.5c0,0.8,0.3,1.6,0.5,2.2
						c0.3,0.5,0.8,0.8,1.4,0.8c0.5,0,1.1-0.3,1.6-0.5c0.8-0.8,1.6-1.9,2.4-3.8l-0.3,1.1c-0.3,0.5-0.3,1.1-0.3,1.6
						c0,0.3,0,0.8,0.3,0.8c0.3,0.3,0.5,0.3,1.1,0.3C247.2,19.7,248.2,18.9,249.3,17z M243.4,17.3c-0.3,0.3-0.5,0.3-0.8,0.3
						c-0.3,0-0.3,0-0.5-0.3c0-0.3-0.3-0.5-0.3-0.8c0-1.1,0.3-2.2,0.8-3.8c0.5-1.6,1.1-2.4,1.6-3c0.3-0.3,0.5-0.3,0.8-0.3
						c0.3,0,0.5,0,0.5,0.3s0.3,0.5,0.3,1.1c0,0.8-0.3,1.9-1.1,3.5C244.7,15.7,244.2,16.8,243.4,17.3z M251.8,18.9
						c0.5,0.5,1.4,0.8,2.7,0.8c1.1,0,1.9-0.3,2.7-0.8c0.8-0.5,1.6-1.1,2.7-2.2l-0.3-0.3c-0.8,0.5-1.4,1.1-1.9,1.4
						c-0.5,0.3-1.1,0.3-1.6,0.3c-0.5,0-1.1-0.3-1.4-0.5c-0.3-0.3-0.5-0.5-0.5-1.1c0-0.3,0-0.8,0-1.4c0.8,0,1.6-0.3,2.2-0.3
						c0.8-0.3,1.6-0.5,2.2-1.1c0.8-0.5,1.4-1.1,1.6-1.6c0.3-0.5,0.5-1.1,0.5-1.6c0-0.5-0.3-0.8-0.5-1.1c-0.3-0.3-0.8-0.5-1.4-0.5
						c-1.4,0-2.4,0.3-3.8,1.1c-1.4,0.8-2.2,1.9-3,3c-0.8,1.4-1.1,2.4-1.1,3.8C250.9,17.6,251.2,18.4,251.8,18.9z M256.3,10.3
						c0.5-0.5,0.8-0.8,1.4-0.8c0.3,0,0.3,0,0.5,0.3c0,0,0.3,0.3,0.3,0.5c0,0.5,0,1.1-0.3,1.6c-0.5,0.5-0.8,1.1-1.4,1.4
						c-0.3,0.3-0.8,0.5-1.1,0.8c-0.3,0.3-0.8,0.3-1.6,0.5C255,12.7,255.5,11.4,256.3,10.3z M261.5,19.5h3l1.1-3.5
						c1.1-1.9,1.9-3.5,3-4.6c0.5-0.3,0.8-0.5,1.1-0.5h0.3v0.3c0,0.3,0,0.3-0.3,0.8l-1.4,4.9c-0.3,0.5-0.3,1.1-0.3,1.4
						c0,0.3,0,0.8,0.3,0.8c0.3,0.3,0.5,0.3,1.1,0.3c1.4,0,2.4-1.1,3.5-3l-0.5-0.3c-0.3,0.3-0.3,0.3-0.3,0.5
						c-0.3,0.5-0.5,0.8-0.8,0.8h-0.3c0,0,0,0-0.3,0c0,0,0,0,0-0.3c0,0,0-0.5,0.3-0.8l1.4-4.9c0.3-0.5,0.3-1.1,0.3-1.6
						s-0.3-0.8-0.5-1.1s-0.5-0.5-1.1-0.5c-0.5,0-0.8,0.3-1.4,0.5c-0.5,0.3-1.1,0.8-1.9,1.6c-0.5,0.5-1.1,1.6-2.2,3l1.4-4.9h-0.8
						l-3.8,0.8v0.5c0.3,0,0.5,0,0.8,0s0.3,0,0.3,0.3v0.3c0,0.3,0,0.8-0.3,1.6L261.5,19.5z M276.6,19.7c0.5,0,1.4-0.3,1.9-0.5
						c0.5-0.5,1.4-1.1,1.6-2.2l-0.3-0.3c-0.5,0.5-0.8,1.1-1.4,1.4c-0.3,0-0.3,0.3-0.3,0.3H278v-0.3c0-0.3,0-0.5,0.3-0.8l1.9-6.8h1.6
						l0.3-1.4h-1.6l0.8-3.2h-0.5c-1.1,1.1-1.9,1.9-2.4,2.4c-0.8,0.5-1.6,0.8-2.4,1.4l-0.3,0.8h1.6l-1.9,6.2
						c-0.3,0.8-0.3,1.4-0.3,1.6c0,0.5,0.3,0.8,0.5,1.1C275.8,19.7,276.1,19.7,276.6,19.7z"/>
				</g>
			</g>
		</g>
	</g>
	<g>
		<path d="M114.5,60c-0.5,0-1.1-0.5-1.1-1.1c0-0.5,0.5-1.1,1.1-1.1h1.6c0-0.3,0-0.5,0-0.5c0-0.3,0-0.3,0.3-0.5l-1.9-0.3
			c-0.5,0-1.1-0.5-0.8-1.1c0-0.5,0.5-1.1,1.1-1.1h0.3c-0.5,0-1.1-0.5-1.1-1.1c0-0.5,0.5-1.1,1.1-1.1l5.7-0.5l-4.6-0.8
			c-0.5,0-1.1-0.5-1.1-1.1c0-0.5,0.5-1.1,1.1-1.1l5.9-0.3l-5.7-1.4c-0.5,0-1.1-0.5-0.8-1.1c0-0.5,0.5-1.1,1.1-1.1l6.8-0.3l-5.7-1.1
			c-0.5,0-1.1-0.5-0.8-1.1c0-0.5,0.5-1.1,1.1-1.1l6.5-0.5l-5.4-0.5c-0.5,0-1.1-0.5-1.1-1.1c0-0.5,0.5-1.1,1.1-1.1l5.4-0.3l-4.3-0.5
			c-0.5,0-1.1-0.5-1.1-1.1c0-0.5,0.5-1.1,1.1-1.1h1.6h-0.5c-0.5,0-1.1-0.5-1.1-1.1c0-0.5,0.5-1.1,1.1-1.1l3-0.3l-3-0.5
			c-0.5,0-1.1-0.5-1.1-1.1c0-0.3,0.3-0.5,0.3-0.8c-0.3-0.3-0.5-0.5-0.5-0.8c0-0.5,0.3-1.1,0.8-1.1l0.8-0.3h-0.3
			c-0.5,0-1.1-0.5-1.1-1.1c0-0.3,0-0.5,0.3-0.8c-0.3-0.3-0.3-0.3-0.3-0.5c0-0.5,0.3-0.8,0.5-1.1h-0.3c-0.5,0-0.8-0.5-1.1-1.1
			c0-0.5,0.3-1.1,0.8-1.1h0.3c-0.3-0.3-0.3-0.5-0.3-0.8c0.3-0.5,0.8-1.1,1.4-0.8l2.4,0.5c0.5,0,0.8,0.5,0.8,1.1c0,0.3,0,0.3,0,0.5
			h1.1c0.5,0,0.8,0.5,1.1,1.1c0,0.3,0,0.3,0,0.5h1.4c0.5,0,1.1,0.5,1.1,1.1c0,0.3,0,0.8-0.5,1.1h1.4c0.5,0,1.1,0.5,1.1,1.1
			s-0.3,1.1-0.8,1.1h-0.5h1.6c0.5,0,1.1,0.5,1.1,1.1s-0.5,1.1-1.1,1.1l-2.4,0.3l4.6,0.8c0.5,0,1.1,0.5,0.8,1.1
			c0,0.5-0.3,0.8-0.8,1.1h0.3c0.5,0,1.1,0.5,1.1,1.1c0,0.5-0.5,1.1-1.1,1.1l-3.5,0.3l4.1,0.5c0.5,0,1.1,0.5,1.1,1.1
			c0,0.5-0.5,1.1-1.1,1.1h-4.6l5.4,0.8c0.5,0,1.1,0.5,1.1,1.1c0,0.5-0.5,1.1-1.1,1.1l-8.1,0.5l6.8,1.4c0.5,0,1.1,0.5,0.8,1.1
			c0,0.5-0.5,1.1-1.1,1.1l-6.2,0.3l5.4,0.8c0.5,0,1.1,0.5,0.8,1.1c0,0.5-0.5,1.1-1.1,1.1l-5.4,0.5l3.5,0.5c0.5,0,1.1,0.5,1.1,1.1
			c0,0.5-0.5,1.1-1.1,1.1l-5.1,0.3l1.9,0.3c0.5,0,1.1,0.5,1.1,1.1c0,0.5-0.5,1.1-1.1,1.1H125c0.5,0.3,0.8,0.5,0.5,1.1
			c0,0.5-0.5,1.1-1.1,1.1H122c0,0.3,0.3,0.5,0,0.8c0,0.5-0.5,0.8-1.1,0.8L114.5,60L114.5,60z"/>
	</g>
</g>
<g>
	<g>
		<g>
			<g>
				<path class="st1" d="M114.5,40.5c0,0,3.8-7.8,3.8-19.2c0-2.2-0.3-4.1-0.5-5.9C116.9,6.5,113.7,0,113.7,0
					c1.4,5.1,1.9,10.3,2.2,15.1c-0.8,0-1.9-0.3-2.7-0.3c-11.9,0-21.4,9.5-21.4,21.4c0,10.8,8.1,19.7,18.6,21.1
					c1.4,5.9,4.3,10,4.3,10c-1.1-3.5-1.9-6.8-2.2-10C111.5,47.6,114.5,40.5,114.5,40.5z"/>
			</g>
			<g>
				<path class="st1" d="M23.9,23c1.6,0.5,2.7,0.8,2.7,0.8c0.5,0,0.8,0,1.4-0.3c0.3-0.3,0.5-0.5,0.8-1.1h1.1l0.5,10.3h-1.4
					c-0.5-2.2-1.4-3.8-2.4-4.9c-1.9-2.7-4.3-3.5-7.6-3.5s-5.9,1.4-7.8,3.8s-3,5.7-3,10.3c0,4.1,1.1,7.3,3.2,9.7s4.9,3.8,8.1,3.8
					c2.4,0,4.6-0.5,6.5-1.6c1.1-0.5,2.4-1.6,3.8-3l0.8,0.8c-1.1,1.4-2.2,2.4-3.8,3.5c-2.7,1.6-5.4,2.4-8.4,2.4
					c-4.9,0-8.9-1.6-11.6-4.6c-2.7-3-4.1-6.5-4.1-10.8c0-4.6,1.4-8.1,4.3-11.4c3-3.5,6.8-5.1,11.6-5.1C20.4,22.2,22,22.4,23.9,23z"
					/>
				<path class="st1" d="M33.1,52.4c1.6-0.3,2.7-0.5,3.2-0.8c0.5-0.5,0.8-1.6,0.8-3.2V27.8c0-1.6-0.3-2.7-0.8-3.2
					c-0.5-0.5-1.6-0.8-3.2-0.8V23h12.4c4.1,0,7.6,0.8,10.5,2.2c5.1,2.4,7.8,6.8,7.8,13.2c0,2.2-0.5,4.3-1.4,6.5s-2.4,3.8-4.3,5.1
					c-1.1,0.8-2.4,1.6-3.8,2.2c-2.4,0.8-5.1,1.4-8.6,1.4H33.1C33.1,53.5,33.1,52.4,33.1,52.4z M42.3,51.3c0.3,0.3,1.1,0.3,2.2,0.3
					c3.5,0,6.5-0.8,8.9-2.2c3.5-2.2,5.4-5.9,5.4-11.1c0-4.6-1.4-8.4-4.3-10.5c-2.4-2.2-5.9-3-10-3c-1.1,0-1.6,0-2.2,0.3
					c-0.3,0.3-0.5,0.8-0.5,1.4v23.2C41.8,50.5,42,51.1,42.3,51.3z"/>
				<path class="st1" d="M68.5,44.1c0.8,2.2,1.6,3.8,2.7,4.9c1.9,2.2,4.1,3.2,6.8,3.2c1.4,0,2.7-0.5,3.8-1.4
					c1.1-0.8,1.6-2.2,1.6-3.8s-0.5-2.7-1.6-3.8c-0.8-0.8-2.2-1.6-4.3-3.2l-4.1-2.4c-1.1-0.8-2.2-1.6-2.7-2.2c-1.4-1.4-1.9-3-1.9-4.9
					c0-2.4,0.8-4.3,2.4-5.7c1.6-1.6,3.5-2.4,6.2-2.4c1.1,0,2.4,0.3,3.8,0.8c1.4,0.5,2.4,0.8,2.4,0.8c0.5,0,1.1,0,1.1-0.3
					c0.3-0.3,0.3-0.5,0.5-1.1h0.8l1.1,9.7h-1.1c-0.8-3-1.9-4.9-3.5-6.2c-1.6-1.1-3.2-1.6-4.9-1.6c-1.4,0-2.4,0.3-3.2,1.1
					c-0.8,0.8-1.4,1.9-1.4,3c0,1.1,0.3,2.2,1.1,3c0.8,0.8,1.9,1.6,3.2,2.7l4.1,2.4c2.4,1.6,4.3,3,5.4,4.3c1.1,1.4,1.6,3,1.6,4.6
					c0,2.4-0.8,4.3-2.7,5.9c-1.9,1.6-4.1,2.4-7,2.4c-1.4,0-3-0.3-4.3-0.8c-1.6-0.5-2.4-0.8-2.7-0.8c-0.5,0-0.8,0.3-1.1,0.5
					s-0.3,0.8-0.3,1.1h-1.1L68,44.3h0.5C68.5,44.3,68.5,44.1,68.5,44.1z"/>
			</g>
		</g>
	</g>
	<g>
		<g>
			<g>
				<g>
					<path class="st1" d="M148,65.1h1.6V1.9H148V65.1z M179.9,49.5h-5.4l-7.6,10.8l-1.1-10.8h-5.7l-0.3,0.5c0.5,0,1.1,0,1.4,0.3
						c0.3,0,0.5,0.3,0.8,0.8l-3.2,11.6c-0.3,0.8-0.8,1.6-1.4,1.9c-0.3,0-0.8,0-1.4,0v0.5h5.1v-0.5c-0.5,0-1.1-0.3-1.4-0.3
						c-0.3-0.3-0.3-0.5-0.3-0.8s0-0.5,0.3-1.1l3-10.3l1.4,13.2h0.5l8.9-13l-3.2,10c-0.3,0.8-0.5,1.6-1.1,1.9
						c-0.3,0.3-0.8,0.3-1.6,0.3l-0.3,0.5h7.8v-0.5c-0.8,0-1.1,0-1.4-0.3c-0.3-0.3-0.3-0.3-0.3-0.8c0-0.3,0-0.8,0.3-1.4l3-10
						c0.3-1.1,0.5-1.6,1.1-1.9C178.2,50,179.1,49.7,179.9,49.5L179.9,49.5z M186.4,54.3c-1.4,0-2.4,0.3-3.8,1.1
						c-1.4,0.8-2.2,1.9-3,3c-0.8,1.4-1.1,2.4-1.1,3.8c0,0.8,0.3,1.6,0.8,2.2c0.5,0.5,1.4,0.8,2.7,0.8c1.1,0,1.9-0.3,2.7-0.8
						c0.8-0.5,1.6-1.1,2.7-2.2l-0.3-0.3c-0.8,0.5-1.4,1.1-1.9,1.4c-0.5,0.3-1.1,0.3-1.6,0.3c-0.5,0-1.1-0.3-1.4-0.5
						c-0.3-0.3-0.5-0.8-0.5-1.4c0-0.3,0-0.8,0-1.4c0.8,0,1.6-0.3,2.2-0.3c0.8-0.3,1.6-0.5,2.2-1.1c0.8-0.5,1.4-1.1,1.6-1.6
						s0.5-1.1,0.5-1.6s-0.3-0.8-0.5-1.1C187.4,54.6,187.2,54.3,186.4,54.3z M185.3,57.6c-0.3,0.5-0.5,1.1-0.8,1.4
						c-0.3,0.3-0.8,0.5-1.1,0.8c-0.3,0.3-0.8,0.3-1.6,0.5c0.5-1.9,1.4-3.2,2.2-4.3c0.5-0.5,0.8-0.8,1.4-0.8c0.3,0,0.3,0,0.5,0.3
						c0,0,0.3,0.3,0.3,0.5C185.8,56.5,185.5,57,185.3,57.6z M198.2,63.5c-0.3,0-0.3,0.3-0.5,0.3c0,0,0,0-0.3,0c0,0,0,0,0-0.3
						s0-0.5,0.3-1.4l3.8-13h-0.8l-3.8,0.8v0.5c0.3,0,0.3,0,0.3,0c0.3,0,0.5,0,0.5,0.3c0.3,0,0.3,0.3,0.3,0.5s0,0.8-0.3,1.6l-0.8,3
						c-0.3-0.3-0.5-0.5-0.8-0.8c-0.3-0.3-0.5-0.3-0.8-0.3c-0.5,0-1.1,0.3-1.9,0.5c-0.5,0.3-1.4,0.8-1.9,1.6
						c-0.5,0.8-1.4,1.6-1.9,2.7c-0.5,1.1-0.8,2.2-0.8,3.5c0,0.8,0.3,1.6,0.5,2.2c0.3,0.5,0.8,0.8,1.4,0.8c0.5,0,1.1-0.3,1.6-0.5
						c0.8-0.5,1.6-1.6,2.4-3.5l-0.3,1.1c0.3,0,0.3,0.5,0.3,0.8c0,0.3,0,0.8,0.3,0.8c0.3,0.3,0.5,0.3,1.1,0.3c1.4,0,2.4-0.8,3.5-2.7
						l-0.5-0.3C198.8,63,198.5,63.5,198.2,63.5z M195.5,60c-0.5,1.4-1.4,2.4-1.9,3c-0.3,0.3-0.5,0.3-0.8,0.3c-0.3,0-0.3,0-0.5-0.3
						c0-0.3-0.3-0.5-0.3-0.8c0-1.1,0.3-2.2,0.8-3.8c0.5-1.6,1.1-2.4,1.6-3c0.3-0.3,0.5-0.3,0.8-0.3c0.3,0,0.5,0,0.5,0.3
						c0.3,0.3,0.3,0.5,0.3,1.1C196.4,57.3,196.1,58.4,195.5,60z M206.1,49.2c-0.5,0-0.8,0.3-1.1,0.5c-0.3,0.3-0.5,0.8-0.5,1.1
						c0,0.5,0.3,0.8,0.5,1.1c0.3,0.3,0.8,0.5,1.1,0.5c0.5,0,0.8-0.3,1.1-0.5c0.3-0.3,0.5-0.8,0.5-1.1c0-0.5-0.3-0.8-0.5-1.1
						C206.9,49.2,206.6,49.2,206.1,49.2z M206.6,54.3h-0.8l-3.8,0.5l-0.3,0.5c0.3,0,0.3,0,0.5,0c0.3,0,0.5,0,0.5,0.3
						c0.3,0,0.3,0.3,0.3,0.5s0,0.5-0.3,1.1l-1.6,5.4c0,0.5-0.3,0.8-0.3,1.1c0,0.5,0.3,0.8,0.5,1.1c0.3,0.3,0.8,0.5,1.1,0.5
						c1.4,0,2.4-1.1,3.8-3l-0.3-0.3c-0.5,0.8-0.8,1.4-1.4,1.6l-0.3,0.3h-0.3v-0.3c0-0.3,0-0.5,0.3-0.8L206.6,54.3z M216.6,62.2
						l2.2-7.6l-2.7,0.3l-0.5,1.4c0-0.5-0.3-1.1-0.5-1.4c-0.3-0.3-0.5-0.3-1.1-0.3c-0.8,0-1.6,0.3-2.4,1.1c-1.1,0.8-1.9,1.9-2.7,3.5
						c-0.5,1.4-1.1,2.7-1.1,3.8c0,0.8,0.3,1.4,0.5,1.9c0.3,0.5,0.8,0.8,1.6,0.8c0.5,0,1.1-0.3,1.6-0.5c0.8-0.5,1.6-1.6,2.7-3.2
						l-0.3,0.8c-0.3,0.8-0.3,1.4-0.3,1.6s0,0.5,0.3,0.8c0.3,0.3,0.5,0.3,1.1,0.3c0.8,0,1.4-0.3,1.9-0.8c0.5-0.5,1.1-1.1,1.6-2.2
						l-0.3-0.3c-0.5,0.5-0.8,1.1-0.8,1.1c-0.3,0.3-0.5,0.3-0.5,0.3h-0.3v-0.3V63V62.2z M213.9,60.5c-0.5,0.8-0.8,1.6-1.4,2.2
						c-0.3,0.3-0.8,0.5-1.1,0.5c-0.3,0-0.3,0-0.5-0.3c0-0.3-0.3-0.5-0.3-0.8c0-1.1,0.3-2.4,0.8-3.8c0.5-1.4,1.1-2.4,1.6-3
						c0.3-0.3,0.5-0.3,0.8-0.3c0.3,0,0.5,0,0.5,0.3c0.3,0.3,0.3,0.8,0.3,1.4C215,57.8,214.7,59.2,213.9,60.5z M225,56.2h1.6l0.3-1.4
						h-1.6l0.8-3.2h-0.5c-1.1,1.1-1.9,1.9-2.4,2.4c-0.5,0.5-1.6,0.8-2.4,1.4l-0.3,0.8h1.6l-1.9,6.2c-0.3,0.8-0.3,1.4-0.3,1.6
						c0,0.5,0.3,0.8,0.5,1.1c0.3,0.3,0.8,0.3,1.1,0.3c0.5,0,1.4-0.3,1.9-0.5c0.5-0.3,1.4-1.1,1.6-2.2l-0.3-0.3
						c-0.5,0.5-0.8,1.1-1.4,1.4c-0.3,0-0.3,0.3-0.3,0.3h-0.3v-0.3c0-0.3,0-0.5,0.3-0.8L225,56.2z M232.3,54.3h-0.8l-3.8,0.5
						l-0.3,0.5c0.3,0,0.3,0,0.5,0s0.5,0,0.5,0.3c0.3,0,0.3,0.3,0.3,0.5s0,0.5-0.3,1.1l-1.6,5.4c0,0.5-0.3,0.8-0.3,1.1
						c0,0.5,0.3,0.8,0.5,1.1c0.3,0.3,0.8,0.5,1.1,0.5c1.4,0,2.4-1.1,3.8-3l-0.3-0.3c-0.5,0.8-0.8,1.4-1.4,1.6l-0.3,0.3h-0.3v-0.3
						c0-0.3,0-0.5,0.3-0.8L232.3,54.3z M231.8,49.2c-0.5,0-0.8,0.3-1.1,0.5c-0.3,0.3-0.8,0.5-0.8,1.1c0,0.5,0.3,0.8,0.5,1.1
						c0.3,0.3,0.8,0.5,1.1,0.5c0.5,0,0.8-0.3,1.1-0.5c0.3-0.3,0.5-0.8,0.5-1.1c0-0.5-0.3-0.8-0.5-1.1
						C232.6,49.2,232,49.2,231.8,49.2z M242.6,54.9c-0.5-0.3-1.1-0.5-1.6-0.5c-0.8,0-1.9,0.3-2.7,0.5c-0.8,0.5-1.6,1.1-2.2,1.6
						c-0.5,0.8-1.1,1.6-1.6,2.4s-0.5,1.9-0.5,3c0,0.8,0.3,1.6,0.8,2.2c0.5,0.5,1.4,0.8,2.4,0.8s2.2-0.3,3.5-1.1
						c1.1-0.8,2.2-1.6,2.7-3c0.8-1.4,1.1-2.4,1.1-3.8c0-0.5-0.3-1.1-0.5-1.6C243.6,55.4,243.1,55.1,242.6,54.9z M240.9,59.5
						c-0.3,1.1-0.8,2.2-1.1,3.2c-0.5,1.1-0.8,1.6-1.4,1.9c-0.3,0.3-0.5,0.3-0.8,0.3c-0.3,0-0.5,0-0.8-0.3c-0.3-0.3-0.3-0.5-0.3-0.8
						c0-1.4,0.3-3,1.1-4.9c0.8-1.9,1.4-3,1.9-3.5c0.3-0.3,0.5-0.3,1.1-0.3c0.3,0,0.5,0,0.5,0.3c0.3,0.3,0.3,0.5,0.3,0.8
						C241.5,57.3,241.2,58.4,240.9,59.5z M256.3,62.7c-0.3,0.5-0.5,0.8-0.8,0.8h-0.3c0,0,0,0-0.3,0c0,0,0,0,0-0.3c0,0,0-0.5,0.3-0.8
						l1.4-4.9c0.3-0.5,0.3-1.1,0.3-1.6s-0.3-0.8-0.5-1.1s-0.5-0.5-1.1-0.5c-0.5,0-0.8,0.3-1.4,0.5c-0.5,0.3-1.1,0.8-1.9,1.6
						c-0.5,0.5-1.1,1.6-2.2,3l1.4-4.9h-0.8l-3.8,0.8v0.5c0.3,0,0.5,0,0.8,0c0.3,0,0.3,0,0.3,0.3v0.3c0,0.3,0,0.8-0.3,1.6l-2.2,7.3h3
						l0.8-3.5c1.1-1.9,1.9-3.5,3-4.6c0.5-0.3,0.8-0.5,1.1-0.5h0.3V57c0,0.3,0,0.3-0.3,0.8l-1.4,4.9c-0.3,0.5-0.3,1.1-0.3,1.4
						c0,0.3,0,0.8,0.3,0.8c0.3,0,0.5,0.3,1.1,0.3c1.4,0,2.4-1.1,3.5-3l-0.5-0.3C256.3,62.4,256.3,62.4,256.3,62.7z M277.4,49.7
						c-0.3,0-0.3,0.3-0.5,0.3s-0.8,0-1.4-0.3c-1.1-0.3-1.9-0.5-2.7-0.5c-1.4,0-2.7,0.5-3.5,1.4c-0.8,0.8-1.4,1.9-1.4,3
						c0,0.5,0.3,1.4,0.5,1.9c0.3,0.8,1.1,1.6,2.2,2.7s1.6,1.9,1.9,2.4c0.3,0.5,0.5,1.1,0.5,1.6c0,0.8-0.3,1.4-0.8,1.9
						c-0.5,0.5-1.1,0.8-1.9,0.8c-0.8,0-1.4-0.3-2.2-0.5s-1.1-1.1-1.4-1.6c-0.3-0.8-0.5-1.6-0.5-2.7h-0.5l-1.4,5.9h0.5
						c0.3-0.3,0.5-0.3,0.8-0.5c0.3,0,0.5,0,0.8,0s1.1,0,1.9,0.3c0.8,0.3,1.9,0.3,2.4,0.3c1.1,0,2.2-0.3,3-0.5
						c0.8-0.3,1.6-0.8,1.9-1.6c0.5-0.8,0.5-1.4,0.5-2.4c0-0.8-0.3-1.4-0.5-2.2c-0.3-0.5-0.8-1.4-1.9-2.2c-1.1-1.1-1.9-1.9-2.2-2.4
						c-0.3-0.5-0.5-1.1-0.5-1.6s0.3-1.1,0.5-1.6c0.5-0.5,1.1-0.8,1.6-0.8s1.1,0.3,1.6,0.5c0.5,0.3,1.1,1.1,1.4,1.6s0.3,1.1,0.5,1.9
						h0.3l1.4-5.4H278C277.7,49.5,277.4,49.7,277.4,49.7z M286.3,54.3c-1.4,0-2.4,0.3-3.8,1.1c-1.4,0.8-2.2,1.9-3,3
						c-0.8,1.4-1.1,2.4-1.1,3.8c0,0.8,0.3,1.6,0.8,2.2c0.5,0.5,1.4,0.8,2.7,0.8c1.1,0,1.9-0.3,2.7-0.8c0.8-0.5,1.6-1.1,2.7-2.2
						l-0.3-0.3c-0.8,0.5-1.4,1.1-1.9,1.4c-0.5,0.3-1.1,0.3-1.6,0.3s-1.1-0.3-1.4-0.5c-0.3-0.3-0.5-0.8-0.5-1.4c0-0.3,0-0.8,0-1.4
						c0.8,0,1.6-0.3,2.2-0.3c0.8-0.3,1.6-0.5,2.2-1.1c0.8-0.5,1.4-1.1,1.6-1.6c0.3-0.5,0.5-1.1,0.5-1.6s-0.3-0.8-0.5-1.1
						C287.7,54.6,287.2,54.3,286.3,54.3z M285.5,57.6c-0.3,0.5-0.5,1.1-0.8,1.4s-0.8,0.5-1.1,0.8c-0.3,0.3-0.8,0.3-1.6,0.5
						c0.5-1.9,1.4-3.2,2.2-4.3c0.5-0.5,0.8-0.8,1.4-0.8c0.3,0,0.3,0,0.5,0.3c0,0,0.3,0.3,0.3,0.5C285.8,56.5,285.8,57,285.5,57.6z
						 M297.2,54.3c-0.5,0-0.8,0.3-1.4,0.5c-0.8,0.8-1.9,2.7-3.2,5.9l1.6-6.5h-0.8l-3.5,0.8v0.3c0.3,0,0.5,0,0.8,0l0.3,0.3
						c0,0,0,0.3,0,0.5s0,0.5-0.3,1.1l-1.9,7.6h2.7c0.3-1.6,0.8-2.7,0.8-3.2c0.3-0.5,0.5-1.4,0.8-2.2s0.8-1.4,1.1-1.9
						c0.3-0.3,0.5-0.5,0.5-0.5h0.3c0,0,0,0,0.3,0c0,0,0.3,0.3,0.3,0.5c0.3,0.3,0.3,0.5,0.8,0.5c0.3,0,0.5-0.3,0.8-0.5
						c0.3-0.5,0.5-1.1,0.5-1.9c0-0.5,0-0.8-0.3-1.1C297.7,54.6,297.4,54.3,297.2,54.3z M307.2,54.3c-0.3,0-0.8,0-1.1,0.3
						s-0.3,0.5-0.3,1.1c0,0.3,0,0.3,0,0.5s0.3,0.5,0.5,0.8c0.3,0.3,0.3,0.8,0.3,1.1c0,0.5-0.3,1.1-0.5,1.6c-0.3,0.5-1.1,1.6-2.4,2.7
						c0-3.2-0.3-5.9-1.1-8.1l-3.8,1.1v0.5c0.3,0,0.3,0,0.5,0s0.5,0,0.5,0.3c0.3,0.3,0.3,0.5,0.5,0.8c0.3,0.5,0.3,1.6,0.5,3.2
						c0,1.6,0.3,3,0.3,3.8c0,0.3,0,0.8,0,1.4h0.5c1.9-1.6,3.5-3,4.3-4.1c0.5-0.5,1.1-1.1,1.6-1.9c0.5-0.8,0.8-1.4,1.1-1.9
						c0.3-0.5,0.3-1.1,0.3-1.6s-0.3-1.1-0.5-1.4C308,54.6,307.4,54.3,307.2,54.3z M314.2,49.2c-0.5,0-0.8,0.3-1.1,0.5
						c-0.3,0.3-0.5,0.8-0.5,1.1c0,0.5,0.3,0.8,0.5,1.1c0.3,0.3,0.8,0.5,1.1,0.5c0.5,0,0.8-0.3,1.1-0.5c0.3-0.3,0.5-0.8,0.5-1.1
						c0-0.5-0.3-0.8-0.5-1.1C315,49.2,314.7,49.2,314.2,49.2z M315,54.3h-0.8l-3.8,0.5l-0.3,0.5c0.3,0,0.3,0,0.5,0s0.5,0,0.5,0.3
						c0.3,0,0.3,0.3,0.3,0.5s0,0.5-0.3,1.1l-1.6,5.4c0,0.5-0.3,0.8-0.3,1.1c0,0.5,0.3,0.8,0.5,1.1s0.8,0.5,1.1,0.5
						c1.4,0,2.4-1.1,3.8-3l-0.3-0.3c-0.5,0.8-0.8,1.4-1.4,1.6l-0.3,0.3h-0.3v-0.3c0-0.3,0-0.5,0.3-0.8L315,54.3z M323.4,54.3
						c-1.1,0-2.2,0.3-3.2,1.1c-1.1,0.8-1.9,1.6-2.7,3s-1.1,2.4-1.1,3.8c0,0.5,0,1.1,0.3,1.6c0.3,0.5,0.5,1.1,1.1,1.4
						s1.1,0.5,1.9,0.5c1.1,0,1.9-0.3,3-0.8c0.8-0.5,1.4-1.1,2.2-1.9l-0.3-0.3c-0.5,0.5-1.1,0.8-1.6,1.1c-0.5,0.3-1.1,0.3-1.6,0.3
						s-1.1-0.3-1.4-0.5c-0.5-0.5-0.5-1.1-0.5-1.9c0-1.1,0.3-1.9,0.5-3s1.1-1.9,1.6-2.7c0.5-0.5,1.1-0.8,1.9-0.8c0.3,0,0.5,0,0.5,0.3
						l0.3,0.3c0,0.3-0.3,0.3-0.5,0.5c-0.5,0.3-0.5,0.5-0.5,1.1c0,0.3,0,0.5,0.3,0.8c0.3,0.3,0.5,0.3,0.8,0.3c0.5,0,0.8-0.3,1.1-0.5
						s0.5-0.8,0.5-1.4s-0.3-1.1-0.5-1.4C324.7,54.6,324.2,54.3,323.4,54.3z M332.3,60.5c0.8-0.3,1.6-0.5,2.2-1.1
						c0.8-0.5,1.4-1.1,1.6-1.6s0.5-1.1,0.5-1.6s-0.3-0.8-0.5-1.1s-0.8-0.5-1.4-0.5c-1.4,0-2.4,0.3-3.8,1.1s-2.2,1.9-3,3
						c-0.8,1.4-1.1,2.4-1.1,3.8c0,0.8,0.3,1.6,0.8,2.2c0.5,0.5,1.4,0.8,2.7,0.8c1.1,0,1.9-0.3,2.7-0.8s1.6-1.1,2.7-2.2l-0.3-0.3
						c-0.8,0.5-1.4,1.1-1.9,1.4c-0.5,0.3-1.1,0.3-1.6,0.3c-0.5,0-1.1-0.3-1.4-0.5s-0.5-0.8-0.5-1.4c0-0.3,0-0.8,0-1.4
						C330.9,60.8,331.8,60.5,332.3,60.5z M332.3,55.9c0.5-0.5,0.8-0.8,1.4-0.8c0.3,0,0.3,0,0.5,0.3c0,0,0.3,0.3,0.3,0.5
						c0,0.5,0,1.1-0.3,1.6c-0.3,0.5-0.5,1.1-0.8,1.4c-0.3,0.3-0.8,0.5-1.1,0.8c-0.3,0.3-0.8,0.3-1.6,0.5
						C330.7,58.4,331.5,57,332.3,55.9z M164.2,34.9c0.8,0,1.6,0.3,2.2,0.3c1.9,0,3.5-0.5,4.6-1.6c1.1-1.1,1.6-2.2,1.6-3.5
						c0-1.4-0.5-2.4-1.6-3c-0.8-0.5-1.9-0.5-3.8-0.5h-6.2V27c0.5,0,1.1,0,1.4,0.3s0.3,0.5,0.3,0.8s0,0.8-0.3,1.4l-2.7,9.7
						c-0.3,0.8-0.5,1.4-0.5,1.6c-0.3,0.3-0.3,0.5-0.5,0.5c-0.3,0-0.8,0.3-1.4,0.3v0.5h7.6l0.3-0.5c-0.8,0-1.4,0-1.6-0.3
						c-0.3-0.3-0.3-0.5-0.3-0.8s0-0.8,0.3-1.4L164.2,34.9z M166.4,27.3c0.3,0,0.3,0,0.5,0c0.8,0,1.4,0.3,1.6,0.5
						c0.3,0.3,0.5,1.1,0.5,1.6c0,1.1-0.3,2.2-0.8,3c-0.5,1.1-1.4,1.4-2.4,1.4c-0.3,0-0.8,0-1.4,0L166.4,27.3z M175,27
						c0.5,0,0.8,0,1.1,0.3c0.3,0,0.3,0.3,0.3,0.5c0,0.3,0,0.5-0.3,1.1l-3.2,10.5c-0.3,0.5-0.3,1.1-0.3,1.4s0.3,0.8,0.5,1.1
						s0.8,0.5,1.1,0.5c0.5,0,1.1-0.3,1.6-0.5c0.8-0.5,1.4-1.4,2.2-2.4l-0.5-0.3c-0.5,0.8-0.8,1.4-1.4,1.6l-0.3,0.3h-0.3v-0.3
						c0-0.3,0-0.5,0.3-1.4l3.8-13h-0.8l-3.8,0.8L175,27z M188,39.2l2.2-7.6l-2.7,0.3l-0.5,1.4c0-0.5-0.3-1.1-0.5-1.4
						c-0.3-0.3-0.5-0.3-1.1-0.3c-0.8,0-1.6,0.3-2.4,1.1c-1.1,0.8-1.9,1.9-2.7,3.5c-0.5,1.4-1.1,2.7-1.1,3.8c0,0.8,0.3,1.4,0.5,1.9
						c0.3,0.5,0.8,0.8,1.6,0.8c0.5,0,1.1-0.3,1.6-0.5c0.8-0.5,1.6-1.6,2.7-3.2l-0.3,0.8c-0.3,0.8-0.3,1.4-0.3,1.6s0,0.5,0.3,0.8
						c0.3,0.3,0.5,0.3,1.1,0.3c0.8,0,1.4-0.3,1.9-0.8c0.5-0.5,1.1-1.1,1.6-2.2l-0.3-0.3c-0.5,0.5-0.8,1.1-0.8,1.1
						c-0.3,0.3-0.5,0.3-0.5,0.3H188v-0.3V40V39.2z M185.5,37.6c-0.5,0.8-0.8,1.6-1.4,2.2c-0.3,0.3-0.8,0.5-1.1,0.5s-0.3,0-0.5-0.3
						c0-0.3-0.3-0.5-0.3-0.8c0-1.1,0.3-2.4,0.8-3.8c0.5-1.4,1.1-2.4,1.6-3c0.3-0.3,0.5-0.3,0.8-0.3s0.5,0,0.5,0.3
						c0.3,0.3,0.3,0.8,0.3,1.4C186.6,34.6,186.4,35.9,185.5,37.6z M190.4,47c0.3,0,0.5,0,1.1-0.3c0.5-0.3,1.1-0.5,1.6-1.1
						c0.5-0.5,1.1-1.1,2.2-2.2c1.4-1.6,2.7-3.2,4.1-5.4c1.1-1.6,1.6-2.7,1.9-3.5c0.3-0.8,0.5-1.4,0.5-1.9c0-0.5-0.3-0.8-0.5-1.1
						s-0.8-0.5-1.1-0.5s-0.8,0.3-1.1,0.5c-0.3,0.3-0.5,0.5-0.5,1.1c0,0.3,0,0.5,0.3,0.5c0.3,0,0.3,0.3,0.8,0.5
						c0.5,0.3,0.5,0.5,0.5,0.8c0,0.5-0.3,1.1-0.5,1.6c-1.1,1.9-1.9,3.2-2.7,4.3c0-2.2-0.3-4.1-0.3-5.9c0-1.1-0.3-1.6-0.5-2.2
						c0-0.3-0.3-0.5-0.5-1.1l-3.8,0.8v0.5c0.3,0,0.3,0,0.5,0c0.3,0,0.5,0,0.8,0.3c0.3,0.3,0.5,0.8,0.5,1.6l0.3,4.3
						c0,1.1,0,2.2,0,2.7c0,0.5,0,1.4,0,2.2c-0.5,0.5-0.8,0.8-1.1,0.8c-0.3,0-0.3,0.3-0.5,0.3c-0.3,0-0.3-0.3-0.5-0.5
						c-0.3-0.5-0.8-0.8-1.4-0.8c-0.3,0-0.8,0.3-1.1,0.5s-0.5,0.5-0.5,1.1c0,0.5,0.3,0.8,0.5,1.1C189.6,46.8,189.9,47,190.4,47z
						 M207.7,37.3c0.8-0.3,1.6-0.5,2.2-1.1c0.8-0.5,1.4-1.1,1.6-1.6c0.3-0.5,0.5-1.1,0.5-1.6s-0.3-0.8-0.5-1.1
						c-0.3-0.3-0.8-0.5-1.4-0.5c-1.4,0-2.4,0.3-3.8,1.1c-1.4,0.8-2.2,1.9-3,3c-0.8,1.4-1.1,2.4-1.1,3.8c0,0.8,0.3,1.6,0.8,2.2
						c0.5,0.5,1.4,0.8,2.7,0.8c1.1,0,1.9-0.3,2.7-0.8c0.8-0.5,1.6-1.1,2.7-2.2l-0.3-0.3c-0.8,0.5-1.4,1.1-1.9,1.4s-1.1,0.3-1.6,0.3
						c-0.5,0-1.1-0.3-1.4-0.5c-0.3-0.3-0.5-0.8-0.5-1.4c0-0.3,0-0.8,0-1.4C206.4,37.6,207.2,37.3,207.7,37.3z M207.7,32.7
						c0.5-0.5,0.8-0.8,1.4-0.8c0.3,0,0.3,0,0.5,0.3c0,0,0.3,0.3,0.3,0.5c0,0.5,0,1.1-0.3,1.6c-0.3,0.5-0.5,1.1-0.8,1.4
						c-0.3,0.3-0.8,0.5-1.1,0.8c-0.3,0.3-0.8,0.3-1.6,0.5C206.1,35.1,206.9,33.8,207.7,32.7z M220.7,34.9c0.3,0,0.5-0.3,0.8-0.5
						c0.3-0.5,0.5-1.1,0.5-1.9c0-0.5,0-0.8-0.3-1.1s-0.5-0.3-0.8-0.3c-0.5,0-0.8,0.3-1.4,0.5c-0.8,0.8-1.9,2.7-3.2,5.9l1.6-6.5h-0.8
						l-3.5,0.8v0.3c0.3,0,0.5,0,0.8,0l0.3,0.3c0,0,0,0.3,0,0.5s0,0.5-0.3,1.1l-1.9,7.6h2.7c0.3-1.6,0.8-2.7,0.8-3.2
						c0.3-0.5,0.5-1.4,0.8-2.2c0.3-0.8,0.8-1.4,1.1-1.9c0.3-0.5,0.5-0.5,0.5-0.5h0.3c0,0,0,0,0.3,0c0,0,0.3,0.3,0.3,0.5
						C220.1,34.9,220.4,34.9,220.7,34.9z M236.6,26.2h-5.4v0.5c0.8,0,1.4,0.3,1.6,0.3c0.3,0.3,0.3,0.5,0.3,0.8c0,0.5,0,0.8-0.3,1.6
						l-2.7,9.7c-0.3,0.8-0.5,1.4-1.1,1.6c-0.3,0.3-1.1,0.5-1.6,0.5l-0.3,0.5h6.5c2.4,0,4.3-0.5,5.9-1.4c1.6-0.8,3-2.2,4.1-4.1
						c0.5-1.1,0.8-2.2,0.8-3.8c0-2.2-0.5-3.8-1.9-4.9C241.5,26.8,239.3,26.2,236.6,26.2z M239.9,36.5c-0.5,1.4-1.4,2.7-2.4,3.5
						c-0.8,0.8-1.9,1.1-3,1.1c-0.5,0-0.8,0-1.1-0.3c-0.3,0-0.3-0.3-0.3-0.5c0-0.3,0-0.5,0.3-1.1l3.5-11.9c0.8,0,1.4,0.3,1.9,0.5
						c0.8,0.5,1.1,1.1,1.6,1.9c0.3,0.8,0.5,1.6,0.5,2.7C240.7,33.5,240.4,35.1,239.9,36.5z M251.2,31.4h-0.8l-3.8,0.5l-0.3,0.5
						c0.3,0,0.3,0,0.5,0c0.3,0,0.5,0,0.5,0.3c0.3,0,0.3,0.3,0.3,0.5c0,0.3,0,0.5-0.3,1.1l-1.6,5.4c0,0.5-0.3,0.8-0.3,1.1
						c0,0.5,0.3,0.8,0.5,1.1s0.8,0.5,1.1,0.5c1.4,0,2.4-1.1,3.8-3l-0.3-0.3c-0.5,0.8-0.8,1.4-1.4,1.6l-0.3,0.3h-0.3v-0.3
						c0-0.3,0-0.5,0.3-0.8L251.2,31.4z M252.3,27.6c0-0.5-0.3-0.8-0.5-1.1c-0.3-0.3-0.8-0.5-1.1-0.5c-0.5,0-0.8,0.3-1.1,0.5
						c-0.5,0.3-0.8,0.5-0.8,1.1s0.3,0.8,0.5,1.1c0.3,0.3,0.8,0.5,1.1,0.5c0.5,0,0.8-0.3,1.1-0.5C251.8,28.4,252.3,28.1,252.3,27.6z
						 M259.3,40.5c0.3-0.5,0.5-1.1,0.5-1.6s0-1.1-0.3-1.6c-0.3-0.5-1.1-1.4-2.2-2.7c-0.3-0.3-0.5-0.5-0.5-0.8c0-0.3-0.3-0.5-0.3-0.8
						s0-0.5,0.3-0.8s0.5-0.3,0.8-0.3c0.5,0,1.1,0.3,1.6,0.8c0.5,0.5,0.8,1.4,0.8,2.2h0.5l0.5-3.5h-0.5c-0.3,0.3-0.5,0.3-0.8,0.3
						c-0.3,0-0.5,0-0.8,0c-0.8-0.3-1.4-0.3-1.6-0.3c-1.1,0-1.9,0.3-2.4,0.8c-0.5,0.5-0.8,1.4-0.8,2.2c0,0.5,0,0.8,0.3,1.4
						c0.3,0.5,0.8,1.4,1.9,2.2c0.5,0.8,1.1,1.4,1.4,1.6c0.3,0.3,0.3,0.8,0.3,1.1c0,0.3-0.3,0.8-0.5,1.1c-0.3,0.3-0.5,0.3-1.1,0.3
						c-0.3,0-0.8,0-1.1-0.3c-0.3-0.3-0.8-0.5-0.8-0.8c-0.3-0.3-0.5-1.1-0.8-1.9h-0.3l-0.5,3.8h0.5c0-0.3,0.3-0.3,0.3-0.3
						s0.3,0,0.5,0s0.5,0,1.1,0.3c0.5,0.3,1.1,0.3,1.6,0.3c0.5,0,1.4-0.3,1.9-0.5C258.5,41.4,258.8,41.1,259.3,40.5z M265,46.5
						c-0.5,0-1.1-0.3-1.1-0.3c-0.3-0.3-0.3-0.3-0.3-0.5s0-1.1,0.3-1.6l0.5-2.2c0.3,0.3,0.5,0.3,0.8,0.3c0.3,0,0.5,0,0.8,0
						c1.6,0,3-0.8,4.3-2.2c1.6-1.6,2.2-3.8,2.2-5.9c0-0.8-0.3-1.6-0.5-2.2s-1.1-0.8-1.6-0.8s-1.1,0-1.6,0.3
						c-0.5,0.3-1.1,0.8-1.9,1.6l0.5-1.9h-0.8l-3.8,0.5v0.5c0.5,0,0.8,0,0.8,0s0.3,0,0.3,0.3v0.3c0,0.3,0,0.8-0.3,1.6l-2.7,9.7
						c-0.3,1.1-0.5,1.6-0.8,1.9c-0.3,0.3-0.8,0.5-1.4,0.5V47h6.2V46.5z M266.6,34.3c0.5-0.5,0.8-0.8,1.4-1.1
						c0.3-0.3,0.5-0.3,0.8-0.3c0.3,0,0.5,0,0.8,0.3c0.3,0.3,0.3,0.8,0.3,1.4c0,0.8,0,1.6-0.3,2.4c-0.3,0.8-0.5,1.6-0.8,2.2
						c-0.3,0.5-0.5,1.1-1.1,1.6c-0.3,0.5-0.5,0.8-0.8,0.8s-0.5,0.3-0.8,0.3c-0.3,0-0.5,0-0.5-0.3c-0.3,0-0.3-0.3-0.5-0.8L266.6,34.3
						z M275.8,42.2c0.5,0,0.8,0,1.4-0.3s1.1-0.8,1.6-1.6c0.5-0.5,1.1-1.6,2.2-3l-0.5,1.9c-0.3,0.5-0.3,1.1-0.3,1.6
						c0,0.3,0.3,0.8,0.5,1.1s0.5,0.3,1.1,0.3c1.4,0,2.4-1.1,3.5-3l-0.3-0.3c-0.5,0.8-0.8,1.1-1.1,1.4l-0.3,0.3c0,0,0,0-0.3,0
						c0,0,0,0,0-0.3c0,0,0-0.5,0.3-1.1l2.2-7.6h-3l-1.1,3.5c-0.8,1.6-1.9,3-2.7,4.1c-0.5,0.5-1.1,0.8-1.4,0.8h-0.3c0,0,0,0,0-0.3
						s0-0.3,0.3-0.8l2.2-7.8h-0.8l-4.1,0.8v0.5c0.3,0,0.5,0,0.8,0c0.3,0,0.3,0,0.3,0.3V33c0,0.3,0,0.8-0.3,1.6l-1.4,4.6
						c-0.3,0.5-0.3,1.1-0.3,1.6s0.3,0.8,0.5,1.1C275,42.2,275.5,42.2,275.8,42.2z M292.6,39.5l-0.3-0.3c-0.5,0.5-0.8,1.1-1.4,1.4
						c-0.3,0-0.3,0.3-0.3,0.3h-0.3v-0.3c0-0.3,0-0.5,0.3-0.8l1.9-6.8h1.6l0.3-1.4h-1.6l0.8-3.2h-0.5c-1.1,1.1-1.9,1.9-2.4,2.4
						c-0.8,0.5-1.6,0.8-2.4,1.4L288,33h1.6l-1.9,6.2c-0.3,0.8-0.3,1.4-0.3,1.6c0,0.5,0.3,0.8,0.5,1.1c0.3,0.3,0.8,0.3,1.1,0.3
						c0.5,0,1.4-0.3,1.9-0.5C291.5,41.1,292,40.5,292.6,39.5z M295,41.4c0.5,0.5,1.4,0.8,2.7,0.8c1.1,0,1.9-0.3,2.7-0.8
						c0.8-0.5,1.6-1.1,2.7-2.2l-0.3-0.3c-0.8,0.5-1.4,1.1-1.9,1.4s-1.1,0.3-1.6,0.3c-0.5,0-1.1-0.3-1.4-0.5
						c-0.3-0.3-0.5-0.8-0.5-1.4c0-0.3,0-0.8,0-1.4c0.8,0,1.6-0.3,2.2-0.3c0.8-0.3,1.6-0.5,2.2-1.1c0.8-0.5,1.4-1.1,1.6-1.6
						c0.3-0.5,0.5-1.1,0.5-1.6s-0.3-0.8-0.5-1.1c-0.3-0.3-0.8-0.5-1.4-0.5c-1.4,0-2.4,0.3-3.8,1.1c-1.4,0.8-2.2,1.9-3,3
						c-0.8,1.4-1.1,2.4-1.1,3.8C294.2,40,294.5,40.8,295,41.4z M299.6,32.7c0.5-0.5,0.8-0.8,1.4-0.8c0.3,0,0.3,0,0.5,0.3
						c0,0,0.3,0.3,0.3,0.5c0,0.5,0,1.1-0.3,1.6c-0.3,0.5-0.5,1.1-0.8,1.4c-0.3,0.3-0.8,0.5-1.1,0.8c-0.3,0.3-0.8,0.3-1.6,0.5
						C298,35.1,298.8,33.8,299.6,32.7z M305.3,41.9c0,0,0.3,0,0.5,0s0.5,0,1.1,0.3s1.1,0.3,1.6,0.3s1.4-0.3,1.9-0.5
						c0.5-0.3,1.1-0.8,1.4-1.4c0.3-0.5,0.5-1.1,0.5-1.6c0-0.5,0-1.1-0.3-1.6c-0.3-0.5-1.1-1.4-2.2-2.7c-0.3-0.3-0.5-0.5-0.5-0.8
						s-0.3-0.5-0.3-0.8c0-0.3,0-0.5,0.3-0.8c0.3-0.3,0.5-0.3,0.8-0.3c0.5,0,1.1,0.3,1.6,0.8c0.5,0.5,0.8,1.4,0.8,2.2h0.5l0.5-3.5
						h-0.5c-0.3,0.3-0.5,0.3-0.8,0.3s-0.5,0-0.8,0c-0.8-0.3-1.4-0.3-1.6-0.3c-1.1,0-1.9,0.3-2.4,0.8c-0.5,0.5-0.8,1.4-0.8,2.2
						c0,0.5,0,0.8,0.3,1.4c0.3,0.5,0.8,1.4,1.9,2.2c0.5,0.8,1.1,1.4,1.4,1.6s0.3,0.8,0.3,1.1s-0.3,0.8-0.5,1.1
						c-0.3,0.3-0.5,0.3-1.1,0.3c-0.3,0-0.8,0-1.1-0.3s-0.8-0.5-0.8-0.8c-0.3-0.3-0.5-1.1-0.8-1.9h-0.3l-0.5,3.8h0.5
						C305,42.2,305,41.9,305.3,41.9z M325,42.2c0.8,0,1.6-0.3,2.4-0.5c0.8-0.3,1.6-0.8,2.4-1.4c0.5,0.5,1.1,1.1,1.6,1.4
						c0.5,0.3,1.1,0.3,1.6,0.3c0.8,0,1.4-0.3,2.2-0.5c0.5-0.3,1.1-1.1,1.4-1.9h-0.3c-0.3,0.3-0.5,0.3-0.5,0.5c-0.3,0-0.3,0-0.5,0
						c-0.5,0-0.8,0-1.1-0.3c-0.5-0.3-1.1-0.8-1.6-1.9c0.5-0.5,1.1-1.1,1.6-1.9c0.8-1.1,1.4-1.6,1.6-1.9s0.5-0.5,1.1-0.5l0.3-0.5
						h-4.3l-0.3,0.5c0.3,0,0.5,0.3,0.8,0.3c0.3,0.3,0.3,0.3,0.3,0.5c0,0.3,0,0.5-0.3,1.1c-0.3,0.5-0.5,0.8-0.8,1.4
						c-0.3-0.5-0.5-1.1-0.8-1.6c-0.3-0.5-0.5-1.6-1.1-3.2c1.6-0.8,2.7-1.4,3.5-2.4c0.5-0.5,0.8-1.4,0.8-2.2c0-0.5-0.3-1.1-0.8-1.6
						c-0.5-0.5-1.1-0.8-1.9-0.8c-1.4,0-2.4,0.5-3.2,1.6c-1.1,1.1-1.4,2.2-1.4,3.8c0,0.3,0,0.5,0,0.8s0,0.8,0,1.1
						c-1.6,0.8-2.7,1.4-3.5,1.9c-0.8,0.5-1.4,1.4-1.6,1.9c-0.3,0.5-0.5,1.1-0.5,1.9c0,0.8,0.3,1.6,1.1,2.4
						C322.8,41.9,323.6,42.2,325,42.2z M329.9,27.3c0.3-0.3,0.5-0.5,0.8-0.5s0.5,0,0.8,0.3s0.3,0.8,0.3,1.4c0,0.8-0.3,1.4-0.5,2.2
						c-0.3,0.5-0.8,0.8-1.4,1.4c0-0.5-0.3-1.1-0.3-1.4c0-0.5,0-0.8,0-1.4C329.3,28.4,329.6,27.6,329.9,27.3z M325,35.7
						c0.3-0.5,1.1-1.1,1.9-1.6c0.3,1.1,0.5,1.9,1.1,3c0.5,1.1,0.8,1.9,1.4,2.7c-0.5,0.3-0.8,0.5-1.1,0.5c-0.3,0-0.8,0.3-1.1,0.3
						c-0.8,0-1.4-0.3-1.9-0.8c-0.5-0.5-0.8-1.4-0.8-2.2C324.5,36.8,324.7,36.2,325,35.7z M163.9,16.5c-0.8,0-1.4,0-1.6-0.3
						c-0.3-0.3-0.3-0.3-0.3-0.5s0-0.8,0.3-1.4l3-10c0.3-1.1,0.5-1.6,1.1-1.9c0.3-0.3,0.8-0.5,1.6-0.5l0.3-0.5h-7.6v0.5
						c0.8,0,1.4,0.3,1.6,0.3c0.3,0,0.3,0.3,0.3,0.5s0,0.8-0.3,1.4l-3,10c-0.3,1.1-0.5,1.6-1.1,1.9c-0.3,0.3-0.8,0.5-1.6,0.5V17h7.8
						L163.9,16.5z M168.5,7.3C168.8,7.3,168.8,7.3,168.5,7.3l0.3,0.5c0,0.3,0,0.8-0.3,1.6l-2.2,7.3h3l1.1-3.5c1.1-1.9,1.9-3.5,3-4.6
						c0.5-0.3,0.8-0.5,1.1-0.5h0.3v0.3c0,0.3,0,0.3-0.3,0.8l-1.4,4.9c0,0.8,0,1.4,0,1.6s0,0.8,0.3,0.8c0.3,0.3,0.5,0.3,1.1,0.3
						c1.4,0,2.4-1.1,3.5-3l-0.5-0.3c-0.3,0.3-0.3,0.3-0.3,0.5c-0.3,0.5-0.5,0.8-0.8,0.8h-0.3c0,0,0,0-0.3,0c0,0,0,0,0-0.3
						c0,0,0-0.5,0.3-0.8l1.4-4.9c0.3-0.5,0.3-1.1,0.3-1.6s-0.3-0.8-0.5-1.1c-0.3-0.3-0.5-0.5-1.1-0.5s-0.8,0.3-1.4,0.5
						c-0.5,0.3-1.1,0.8-1.9,1.6c-0.5,0.5-1.1,1.6-2.2,3l1.4-4.9h-0.8l-3.8,0.8v0.5C168.2,7.3,168.5,7.3,168.5,7.3z M182,17
						c0.5,0,1.1-0.3,1.6-0.5c0.8-0.5,1.6-1.6,2.4-3.5l-0.3,1.1c-0.3,0.5-0.3,1.1-0.3,1.6c0,0.3,0,0.8,0.3,0.8
						c0.3,0.3,0.5,0.3,1.1,0.3c1.4,0,2.4-0.8,3.5-2.7l-0.5-0.3c-0.5,0.5-0.8,1.1-1.1,1.4c-0.3,0-0.3,0.3-0.5,0.3c0,0,0,0-0.3,0
						c0,0,0,0,0-0.3s0-0.5,0.3-1.4l3.8-13h-0.8l-3.8,0.8v0.5c0.3,0,0.3,0,0.3,0c0.3,0,0.5,0,0.5,0.3s0.3,0.3,0.3,0.5s0,0.8-0.3,1.6
						l-0.8,3c-0.3-0.3-0.5-0.5-0.8-0.8c-0.3,0-0.5-0.3-0.8-0.3c-0.5,0-1.1,0.3-1.9,0.5c-0.5,0.3-1.4,0.8-1.9,1.6
						c-0.5,0.8-1.4,1.6-1.9,2.7s-0.8,2.2-0.8,3.5c0,0.8,0.3,1.6,0.5,2.2C180.1,17.6,181.5,17,182,17z M183.9,10
						c0.5-1.6,1.1-2.4,1.6-3c0.3-0.3,0.5-0.3,0.8-0.3c0.3,0,0.5,0,0.5,0.3s0.3,0.5,0.3,1.1c0,0.8-0.3,1.9-1.1,3.5
						c-0.5,1.4-1.4,2.4-1.9,3c-0.3,0.3-0.5,0.3-0.8,0.3c-0.3,0-0.3,0-0.5-0.3c0-0.3-0.3-0.5-0.3-0.8C183.1,13,183.4,11.6,183.9,10z
						 M192.8,16.2c0.5,0.5,1.4,0.8,2.7,0.8c1.1,0,1.9-0.3,2.7-0.8c0.8-0.5,1.6-1.1,2.7-2.2l-0.3-0.3c-0.8,0.5-1.4,1.1-1.9,1.4
						c-0.5,0.3-1.1,0.3-1.6,0.3c-0.5,0-1.1-0.3-1.4-0.5c-0.3-0.3-0.5-0.8-0.5-1.4c0-0.3,0-0.8,0-1.4c0.8,0,1.6-0.3,2.2-0.3
						c0.8-0.3,1.6-0.5,2.2-1.1c0.8-0.5,1.4-1.1,1.6-1.6c0.3-0.5,0.5-1.1,0.5-1.6s-0.3-0.8-0.5-1.1c-0.3-0.3-0.8-0.5-1.4-0.5
						c-1.4,0-2.4,0.3-3.8,1.1c-1.4,0.8-2.2,1.9-3,3c-0.8,1.4-1.1,2.4-1.1,3.8C192.3,14.9,192.6,15.7,192.8,16.2z M197.7,7.6
						c0.5-0.5,0.8-0.8,1.4-0.8c0.3,0,0.3,0,0.5,0.3c0,0,0.3,0.3,0.3,0.5c0,0.5,0,1.1-0.3,1.6c-0.3,0.5-0.5,1.1-0.8,1.4
						c-0.3,0.3-0.8,0.5-1.1,0.8c-0.3,0.3-0.8,0.3-1.6,0.5C196.1,10,196.6,8.6,197.7,7.6z M204.7,7.6L204.7,7.6c0,0.5,0,1.1-0.3,1.9
						l-2.7,9.7c-0.3,1.1-0.5,1.6-0.8,1.9c-0.5,0.3-0.8,0.3-1.4,0.3v0.5h6.2v-0.5c-0.5,0-1.1-0.3-1.1-0.3c-0.3-0.3-0.3-0.3-0.3-0.5
						c0-0.3,0-1.1,0.3-1.6l0.5-2.2c0.3,0.3,0.5,0.3,0.8,0.3c0.3,0,0.5,0,0.8,0c1.6,0,3-0.8,4.3-2.2c1.6-1.6,2.4-3.8,2.4-5.9
						c0-0.8-0.3-1.6-0.5-2.2s-1.1-0.8-1.6-0.8c-0.5,0-1.1,0-1.6,0.3c-0.5,0.3-1.1,0.8-1.9,1.6l0.3-1.6h-0.8l-3.8,0.5v0.5
						C204.2,7.3,204.5,7.3,204.7,7.6C204.7,7.3,204.7,7.3,204.7,7.6z M207.4,9.2c0.5-0.5,0.8-0.8,1.4-1.1c0-0.3,0.3-0.3,0.5-0.3
						c0.3,0,0.5,0,0.8,0.3c0.3,0.3,0.3,0.8,0.3,1.4c0,0.8,0,1.6-0.3,2.4c-0.3,0.8-0.5,1.6-0.8,2.2c-0.3,0.5-0.5,1.1-1.1,1.6
						c0,0.3-0.5,0.5-0.5,0.8c-0.3,0-0.5,0.3-0.8,0.3c-0.3,0-0.5,0-0.5-0.3c-0.3,0-0.3-0.3-0.5-0.8L207.4,9.2z M218.2,17
						c1.1,0,1.9-0.3,2.7-0.8c0.8-0.5,1.6-1.1,2.7-2.2l-0.3-0.3c-0.8,0.5-1.4,1.1-1.9,1.4c-0.5,0.3-1.1,0.3-1.6,0.3s-1.1-0.3-1.4-0.5
						s-0.5-0.8-0.5-1.4c0-0.3,0-0.8,0-1.4c0.8,0,1.6-0.3,2.2-0.3c0.8-0.3,1.6-0.5,2.2-1.1c0.8-0.5,1.4-1.1,1.6-1.6
						c0.3-0.5,0.5-1.1,0.5-1.6s-0.3-0.8-0.5-1.1c-0.3-0.3-0.8-0.5-1.4-0.5c-1.4,0-2.4,0.3-3.8,1.1s-2.2,1.9-3,3
						c-0.8,1.4-1.1,2.4-1.1,3.8c0,0.8,0.3,1.6,0.8,2.2C216.1,16.8,217.2,17,218.2,17z M220.4,7.6c0.5-0.5,0.8-0.8,1.4-0.8
						c0.3,0,0.3,0,0.5,0.3c0,0,0.3,0.3,0.3,0.5c0,0.5,0,1.1-0.3,1.6c-0.3,0.5-0.5,1.1-0.8,1.4c-0.3,0.3-0.8,0.5-1.1,0.8
						c-0.3,0.3-0.8,0.3-1.6,0.5C218.8,10,219.6,8.6,220.4,7.6z M225.5,16.8h3l0.8-3.5c1.1-1.9,1.9-3.5,3-4.6
						c0.5-0.3,0.8-0.5,1.1-0.5h0.3v0.3c0,0.3,0,0.3-0.3,0.8l-1.4,4.9c-0.3,0.5-0.3,1.1-0.3,1.4s0,0.8,0.3,0.8
						c0.3,0.3,0.5,0.3,1.1,0.3c1.4,0,2.4-1.1,3.5-3l-0.5-0.3c-0.3,0.3-0.3,0.3-0.3,0.5c-0.3,0.5-0.5,0.8-0.8,0.8h-0.3c0,0,0,0-0.3,0
						c0,0,0,0,0-0.3c0,0,0-0.5,0.3-0.8l1.4-4.9c0.3-0.5,0.3-1.1,0.3-1.6s-0.3-0.8-0.5-1.1c-0.3-0.3-0.5-0.5-1.1-0.5
						c-0.5,0-0.8,0.3-1.4,0.5c-0.5,0.3-1.1,0.8-1.9,1.6c-0.5,0.5-1.1,1.6-2.2,3l1.4-4.9h-0.8l-3.8,0.8V7c0.3,0,0.5,0,0.8,0
						c0.3,0,0.3,0,0.3,0.3v0.3c0,0.3,0,0.8-0.3,1.6L225.5,16.8z M249.3,14.3l-0.5-0.3c-0.5,0.5-0.8,1.1-1.1,1.4
						c-0.3,0-0.3,0.3-0.5,0.3c0,0,0,0-0.3,0c0,0,0,0,0-0.3s0-0.5,0.3-1.4l4.3-13.2h-0.8l-3.8,0.8v0.5c0.3,0,0.3,0,0.3,0
						c0.3,0,0.5,0,0.5,0.3S248,2.7,248,3s0,0.8-0.3,1.6l-0.8,3c-0.5-0.8-0.8-1.1-0.8-1.4c-0.3,0-0.5-0.3-0.8-0.3
						c-0.5,0-1.1,0.3-1.9,0.5c-0.5,0.3-1.4,0.8-1.9,1.6s-1.4,1.6-1.9,2.7c-0.5,1.1-0.5,2.4-0.5,3.5c0,0.8,0.3,1.6,0.5,2.2
						c0.3,0.5,0.8,0.8,1.4,0.8c0.5,0,1.1-0.3,1.6-0.5c0.8-0.8,1.6-1.9,2.4-3.8l-0.3,1.1c-0.3,0.5-0.3,1.1-0.3,1.6
						c0,0.3,0,0.8,0.3,0.8c0.3,0.3,0.5,0.3,1.1,0.3C247.2,17,248.2,16.2,249.3,14.3z M243.4,14.6c-0.3,0.3-0.5,0.3-0.8,0.3
						c-0.3,0-0.3,0-0.5-0.3c0-0.3-0.3-0.5-0.3-0.8c0-1.1,0.3-2.2,0.8-3.8c0.5-1.6,1.1-2.4,1.6-3c0.3-0.3,0.5-0.3,0.8-0.3
						c0.3,0,0.5,0,0.5,0.3s0.3,0.5,0.3,1.1c0,0.8-0.3,1.9-1.1,3.5C244.7,13,244.2,14.1,243.4,14.6z M251.8,16.2
						c0.5,0.5,1.4,0.8,2.7,0.8c1.1,0,1.9-0.3,2.7-0.8c0.8-0.5,1.6-1.1,2.7-2.2l-0.3-0.3c-0.8,0.5-1.4,1.1-1.9,1.4s-1.1,0.3-1.6,0.3
						c-0.5,0-1.1-0.3-1.4-0.5c-0.3-0.3-0.5-0.5-0.5-1.1c0-0.3,0-0.8,0-1.4c0.8,0,1.6-0.3,2.2-0.3c0.8-0.3,1.6-0.5,2.2-1.1
						c0.8-0.5,1.4-1.1,1.6-1.6c0.3-0.5,0.5-1.1,0.5-1.6s-0.3-0.8-0.5-1.1c-0.3-0.3-0.8-0.5-1.4-0.5c-1.4,0-2.4,0.3-3.8,1.1
						c-1.4,0.8-2.2,1.9-3,3c-0.8,1.4-1.1,2.4-1.1,3.8C250.9,14.9,251.2,15.7,251.8,16.2z M256.3,7.6c0.5-0.5,0.8-0.8,1.4-0.8
						c0.3,0,0.3,0,0.5,0.3c0,0,0.3,0.3,0.3,0.5c0,0.5,0,1.1-0.3,1.6c-0.5,0.5-0.8,1.1-1.4,1.4c-0.3,0.3-0.8,0.5-1.1,0.8
						c-0.3,0.3-0.8,0.3-1.6,0.5C255,10,255.5,8.6,256.3,7.6z M261.5,16.8h3l1.1-3.5c1.1-1.9,1.9-3.5,3-4.6c0.5-0.3,0.8-0.5,1.1-0.5
						h0.3v0.3c0,0.3,0,0.3-0.3,0.8l-1.4,4.9c-0.3,0.5-0.3,1.1-0.3,1.4s0,0.8,0.3,0.8c0.3,0.3,0.5,0.3,1.1,0.3c1.4,0,2.4-1.1,3.5-3
						l-0.5-0.3c-0.3,0.3-0.3,0.3-0.3,0.5c-0.3,0.5-0.5,0.8-0.8,0.8h-0.3c0,0,0,0-0.3,0c0,0,0,0,0-0.3c0,0,0-0.5,0.3-0.8l1.4-4.9
						c0.3-0.5,0.3-1.1,0.3-1.6s-0.3-0.8-0.5-1.1c-0.3-0.3-0.5-0.5-1.1-0.5c-0.5,0-0.8,0.3-1.4,0.5c-0.5,0.3-1.1,0.8-1.9,1.6
						c-0.5,0.5-1.1,1.6-2.2,3l1.4-4.9h-0.8l-3.8,0.8V7c0.3,0,0.5,0,0.8,0s0.3,0,0.3,0.3v0.3c0,0.3,0,0.8-0.3,1.6L261.5,16.8z
						 M276.6,17c0.5,0,1.4-0.3,1.9-0.5c0.5-0.5,1.4-1.1,1.6-2.2l-0.3-0.3c-0.5,0.5-0.8,1.1-1.4,1.4c-0.3,0-0.3,0.3-0.3,0.3H278v-0.3
						c0-0.3,0-0.5,0.3-0.8l1.9-6.8h1.6l0.3-1.4h-1.6l0.8-3.2h-0.5c-1.1,1.1-1.9,1.9-2.4,2.4c-0.8,0.5-1.6,0.8-2.4,1.4l-0.3,0.8h1.6
						l-1.9,6.2c-0.3,0.8-0.3,1.4-0.3,1.6c0,0.5,0.3,0.8,0.5,1.1C275.8,17,276.1,17,276.6,17z"/>
				</g>
			</g>
		</g>
	</g>
</g>
<g>
	<path class="st2" d="M114.5,57.6c-0.5,0-1.1-0.5-1.1-1.1c0-0.5,0.5-1.1,1.1-1.1h1.6c0-0.3,0-0.5,0-0.5c0-0.3,0-0.3,0.3-0.5
		l-1.9-0.3c-0.5,0-1.1-0.5-0.8-1.1c0-0.5,0.5-1.1,1.1-1.1h0.3c-0.5,0-1.1-0.5-1.1-1.1c0-0.5,0.5-1.1,1.1-1.1l5.7-0.5l-4.6-0.8
		c-0.5,0-1.1-0.5-1.1-1.1c0-0.5,0.5-1.1,1.1-1.1L122,46l-5.7-1.4c-0.5,0-1.1-0.5-0.8-1.1c0-0.5,0.5-1.1,1.1-1.1l6.8-0.3l-5.7-1.1
		c-0.5,0-1.1-0.5-0.8-1.1c0-0.5,0.5-1.1,1.1-1.1l6.5-0.5l-5.4-0.5c-0.5,0-1.1-0.5-1.1-1.1c0-0.5,0.5-1.1,1.1-1.1l5.4-0.3l-4.3-0.5
		c-0.5,0-1.1-0.5-1.1-1.1c0-0.5,0.5-1.1,1.1-1.1h1.6h-0.5c-0.5,0-1.1-0.5-1.1-1.1s0.5-1.1,1.1-1.1l3-0.3l-3-0.5
		c-0.5,0-1.1-0.5-1.1-1.1c0-0.3,0.3-0.5,0.3-0.8c-0.3-0.3-0.5-0.5-0.5-0.8c0-0.5,0.3-1.1,0.8-1.1l0.8-0.3h-0.3
		c-0.5,0-1.1-0.5-1.1-1.1c0-0.3,0-0.5,0.3-0.8c-0.3-0.3-0.3-0.3-0.3-0.5c0-0.5,0.3-0.8,0.5-1.1h-0.3c-0.5,0-0.8-0.5-1.1-1.1
		c0-0.5,0.3-1.1,0.8-1.1h0.3c-0.3-0.3-0.3-0.5-0.3-0.8c0.3-0.5,0.8-1.1,1.4-0.8l2.4,0.5c0.5,0,0.8,0.5,0.8,1.1c0,0.3,0,0.3,0,0.5
		h1.1c0.5,0,0.8,0.5,1.1,1.1c0,0.3,0,0.3,0,0.5h1.4c0.5,0,1.1,0.5,1.1,1.1c0,0.3,0,0.8-0.5,1.1h1.4c0.5,0,1.1,0.5,1.1,1.1
		s-0.3,1.1-0.8,1.1h-0.5h1.6c0.5,0,1.1,0.5,1.1,1.1s-0.5,1.1-1.1,1.1l-2.4,0.3l4.6,0.8c0.5,0,1.1,0.5,0.8,1.1c0,0.5-0.3,0.8-0.8,1.1
		h0.3c0.5,0,1.1,0.5,1.1,1.1c0,0.5-0.5,1.1-1.1,1.1l-3.5,0.3l4.1,0.5c0.5,0,1.1,0.5,1.1,1.1c0,0.5-0.5,1.1-1.1,1.1h-4.6l5.4,0.8
		c0.5,0,1.1,0.5,1.1,1.1c0,0.5-0.5,1.1-1.1,1.1l-8.1,0.5l6.8,1.4c0.5,0,1.1,0.5,0.8,1.1c0,0.5-0.5,1.1-1.1,1.1l-6.2,0.3l5.4,0.8
		c0.5,0,1.1,0.5,0.8,1.1c0,0.5-0.5,1.1-1.1,1.1l-5.4,0.5l3.5,0.5c0.5,0,1.1,0.5,1.1,1.1c0,0.5-0.5,1.1-1.1,1.1l-5.1,0.3l1.9,0.3
		c0.5,0,1.1,0.5,1.1,1.1c0,0.5-0.5,1.1-1.1,1.1H125c0.5,0.3,0.8,0.5,0.5,1.1c0,0.5-0.5,1.1-1.1,1.1H122c0,0.3,0.3,0.5,0,0.8
		c0,0.5-0.5,0.8-1.1,0.8L114.5,57.6L114.5,57.6z"/>
</g>
</svg>
