<?xml version="1.0" encoding="utf-8"?>
<!-- Generator: Adobe Illustrator 26.0.0, SVG Export Plug-In . SVG Version: 6.00 Build 0)  -->
<svg version="1.1" id="Layer_1" xmlns="http://www.w3.org/2000/svg" xmlns:xlink="http://www.w3.org/1999/xlink" x="0px" y="0px"
	 viewBox="0 0 450 70" style="enable-background:new 0 0 450 70;" xml:space="preserve">
<style type="text/css">
	.st0{opacity:0;}
	.st1{fill:#83C000;}
</style>
<rect class="st0" width="450" height="70"/>
<g>
	<path class="st1" d="M43.3,64.4l2.8-3.1v7.5l-44.2,0l0.3-0.3c1.9-1.8,3-4.2,3-6.8V8.3c0-2.6-1.1-5.1-3-6.8L1.9,1.2h44.2v7.5
		l-2.8-3.1c-1.8-1.9-4.2-3-6.8-3H12.1v31.7h10.4c2.6,0,5.1-1.1,6.8-3l2.8-3.1v13.5l-2.8-3.1c-1.8-1.9-4.2-3-6.8-3H12.1v31.7h24.3
		C39,67.4,41.5,66.3,43.3,64.4z"/>
	<path class="st1" d="M58.2,26.8v26.7h0c0,1.9,0.2,3.8,0.4,5.7c0.1,1.3,0.4,2.5,0.7,3.7c0.3,1.1,0.8,2.1,1.6,3
		c1.1,1.1,2.7,1.7,4.2,1.6v1.4c-1.9,0.1-3.7-0.3-5.5-1c-1.4-0.6-2.7-1.4-3.8-2.5c-1.3-1.2-2.4-2.6-3.1-4.2c-1.1-2.4-1.6-5-1.6-7.6h0
		V26.8H46c6.4-2.7,12.3-15,12.3-15v13.6h7.9v1.4H58.2z"/>
	<path class="st1" d="M108.6,56.6l-0.2,0.7c0,0.1-3.6,10.9-18.8,11.3v0h-0.6c0,0-0.8,0-0.8,0v0c-0.4,0-0.9,0-1.3-0.1
		c-2.1-0.2-4.1-0.7-6-1.4c-2-0.7-4-1.8-5.7-3c-2.1-1.5-3.8-3.4-5.1-5.6c-4-7-4-15.6,0-22.6c1.3-2.2,3.1-4.1,5.1-5.6
		c1.8-1.3,3.7-2.3,5.7-3c1.9-0.7,4-1.2,6-1.4c0.7-0.1,1.3-0.1,2-0.1h0.7v0c2.6,0.1,5.2,0.6,7.7,1.6c4.9,1.8,8.7,5.8,10.3,10.8
		c0.1,0.4,0.3,0.8,0.4,1.2c0,0.1,0,0.1,0,0.2H75.1c-0.8,2.5-1.2,5.1-1.2,7.7c0,2.9,0.5,5.9,1.5,8.6c0.7,1.9,1.5,3.7,2.6,5.4
		c1,1.6,2.3,2.9,3.8,4c1.7,1.2,3.7,1.9,5.8,2.1c0.4,0,0.8,0.1,1.2,0.1h0.1c14.7-0.1,17.9-9.9,18.1-10.3l0.2-0.7L108.6,56.6z
		 M78,33.2c-1,1.5-1.8,3.2-2.4,4.9h25.7c-0.2-1.3-0.6-2.5-1.1-3.6c-1-1.9-2.4-3.6-4.1-4.9c-2.1-1.6-4.6-2.4-7.1-2.5h-0.1l-0.1,0
		c-2.5,0-4.9,0.8-6.9,2.2C80.2,30.3,79,31.6,78,33.2L78,33.2z"/>
	<path class="st1" d="M141.4,29.5c0,0.6-0.2,1.2-0.6,1.6c-0.5,0.6-1.1,1.2-1.8,1.7c-0.4,0.3-1,0.6-1.5,0.7c0,0-0.1,0-0.1,0
		c-0.2,0-0.4,0-0.6,0h0c-0.1,0-0.2-0.1-0.2-0.1c-0.9-1.2-2.3-1.8-3.7-1.8c-1.9,0.1-3.6,0.8-5.1,2c-1.7,1.3-3,3.1-3.9,5
		c0,0.4,0.1,0.9,0.1,1.3h0v21.8c0,2.6,1.1,5.1,3,6.8l0.3,0.3h-13.5l0.3-0.3c1.9-1.8,3-4.2,3-6.8V39.9h0c0-1.8-0.2-3.6-0.6-5.4
		c-0.2-1.2-0.6-2.4-1-3.5c-1-2.6-3.6-4.3-6.5-4.1v-1.4c1.8,0,3.7,0.3,5.4,0.8c1.5,0.4,2.9,1.1,4.1,1.9c1.5,1,2.7,2.4,3.6,4
		c0.7,1.2,1.1,2.5,1.4,3.8c0.7-1.5,1.5-2.9,2.4-4.2c1.5-2.1,3.6-3.8,6-4.6c2.1-0.7,4.4-0.7,6.6,0.1c0.4,0.1,0.7,0.3,1.1,0.4l1,0.5
		c0.4,0.2,0.6,0.5,0.7,0.9C141.3,29.2,141.4,29.4,141.4,29.5z"/>
	<path class="st1" d="M180.4,42L180.4,42c0-8.1-2.2-14.3-7.7-14.3c-3.7,0.1-7.2,1.5-9.8,4.1c-2,1.8-3.7,3.8-5.1,6.1
		c0.1,0.7,0.1,1.4,0.1,2v21.8c0,2.6,1.1,5.1,3,6.8l0.3,0.3h-13.5l0.3-0.3c1.9-1.8,3-4.2,3-6.8V39.9c0-1.8-0.2-3.6-0.6-5.4
		c-0.2-1.2-0.6-2.4-1-3.5c-1-2.6-3.6-4.3-6.5-4.1v-1.4c1.8,0,3.7,0.3,5.4,0.8c1.5,0.4,2.9,1.1,4.1,1.9c1.5,1,2.7,2.4,3.6,4
		c0.7,1.2,1.1,2.4,1.4,3.7c3.6-5.2,9.6-10.5,16.3-10.5c1.1,0,2.1,0.1,3.2,0.2c0.9,0.2,1.8,0.4,2.6,0.8c1.5,0.7,2.8,1.7,3.9,3
		c2.2,2.5,3.8,6.1,3.9,12.6v19.7c0,2.6,1.1,5.1,3,6.8l0.3,0.3h-13.5l0.3-0.3c1.9-1.8,3-4.2,3-6.8L180.4,42L180.4,42z"/>
	<path class="st1" d="M223.9,68.8l0-5.2c-1.3,1-2.7,1.8-4.1,2.6c-1.3,0.7-2.7,1.3-4.2,1.6c-1,0.3-1.9,0.5-2.9,0.7
		c-2.2,0.4-4.4,0.4-6.6,0.1c-2.3-0.3-4.4-1.1-6.4-2.3l-0.8-0.5c-0.2-0.2-0.5-0.4-0.7-0.6c-0.5-0.5-1-1-1.3-1.5
		c-0.4-0.6-0.8-1.2-1.1-1.9c-0.3-0.6-0.5-1.3-0.6-1.9c-0.7-2.5-0.5-5.2,0.5-7.6c0.9-2.2,2.4-4.1,4.3-5.5c1.9-1.3,3.9-2.4,6-3.1
		c2.2-0.8,4.5-1.5,6.8-2.1c10.2-2.4,10.6-5.8,10.6-5.8h0.1c-0.1-0.5-0.2-1-0.3-1.4c-0.3-1.2-0.8-2.4-1.4-3.4c-0.6-1-1.4-1.9-2.5-2.6
		c-1.4-0.9-3.1-1.3-4.8-1.3h0c-2.1,0-4.1,0.7-5.9,1.9c-2.7,2.2-4.3,5.4-4.5,8.8c-0.1,0.6-1,0.9-2.3,0.9c-0.8,0-1.6-0.1-2.4-0.4
		c-1.2-0.4-2-1.4-1.6-2.3c0.9-2.1,2.3-4.1,3.9-5.7c1.6-1.6,3.6-2.9,5.7-3.6c2.3-0.7,4.7-1,7-1c1.9,0,3.8,0.2,5.6,0.6
		c1.5,0.3,3,0.9,4.4,1.6c1.7,0.9,3.1,2.3,4.1,3.9c1.5,2.5,2.2,5.3,2.2,8.2v22c0,2.6,1.1,5.1,3,6.8l0.3,0.3L223.9,68.8z M219.2,65
		c1.7-0.8,3.3-1.9,4.7-3.2V39.7c0-0.7,0-1.3-0.1-1.9c-1.3,1.5-4.1,3.5-10.6,5c-4.9,1.3-8.4,3.9-10.2,6.8c-0.8,1.3-1.3,2.8-1.5,4.3
		c-0.1,1.4,0,2.9,0.4,4.3c0.1,0.4,0.2,0.7,0.3,1.1c0.1,0.2,0.2,0.5,0.3,0.8c0.1,0.3,0.3,0.6,0.5,0.8l0.3,0.4l0.3,0.4
		c1,1.2,2.3,2.2,3.7,3c1.6,0.9,3.5,1.5,5.3,1.6C215,66.4,217.2,66,219.2,65L219.2,65z"/>
	<path class="st1" d="M241.5,15.6c0-1.8-0.2-3.6-0.6-5.4c-0.2-1.2-0.6-2.4-1-3.5c-1-2.6-3.6-4.3-6.5-4.1V1.2c1.8,0,3.7,0.3,5.4,0.8
		c1.5,0.4,2.9,1.1,4.1,1.9c1.5,1,2.7,2.4,3.6,4c1.3,2.4,1.9,5,1.9,7.7v46.1c0,2.6,1.1,5.1,3,6.8l0.3,0.3h-13.5l0.3-0.3
		c1.9-1.8,3-4.2,3-6.8L241.5,15.6z"/>
	<path class="st1" d="M325.4,50.3c0.7,6.3-2.5,12.4-8.1,15.3c-1.9,1-4,1.8-6.1,2.3c-1.6,0.4-3.3,0.7-4.9,0.8l-0.3,0
		c-0.3,0-0.5,0-0.8,0.1c-0.6,0-1.2,0.1-1.8,0.1h-0.1c-2.6,0-5.2-0.2-7.8-0.7c-4.9-0.9-9.4-3.1-13.1-6.4c-0.4-0.4-0.5-1-0.4-1.5
		c0.1-0.5,0.4-1,0.8-1.4c0.6-0.5,1.3-1,2-1.4c1.2-0.6,2.2-0.6,2.6,0c2.1,3.5,5.2,6.4,8.9,8.2c2.2,1.1,4.6,1.7,7,1.7
		c0.1,0,0.2,0,0.3,0c2.5,0,4.9-0.4,7.3-1.1c1.9-0.6,3.7-1.5,5.2-2.7c2.6-1.8,4.2-4.7,4.6-7.8c0.2-1.5,0-3.1-0.4-4.5
		c-0.2-0.8-0.6-1.5-1-2.3c-0.2-0.4-0.4-0.7-0.7-1.1c-0.2-0.3-0.5-0.6-0.8-0.9c-1.8-1.5-3.7-2.8-5.9-3.8c-2.7-1.4-5.5-2.8-9-4.5
		c-3.2-1.5-6.4-3.2-9.4-5.1c-2.5-1.6-4.8-3.7-6.7-6c-1.7-2-2.8-4.4-3.3-7c-0.4-2.2-0.3-4.4,0.3-6.6c1.1-3.8,3.5-7.1,6.9-9.3
		c3.4-2.3,8-3.6,13.8-3.6h0c2.6,0,5.3,0.4,7.8,1.1c2.4,0.7,4.6,1.8,6.5,3.3c2,1.5,3.8,3.3,5.3,5.4c0.3,0.5,0.3,1.1,0.1,1.6
		c-0.2,0.5-0.6,0.9-1.1,1.2c-0.7,0.4-1.5,0.7-2.3,0.9c-1.3,0.3-2.3,0.2-2.5-0.6c-1.2-3.8-3.7-7.2-7.1-9.4c-2-1.3-4.4-2-6.8-2h0
		c-5.6,0-9.8,1.7-12.4,4c-2.4,2.1-3.9,5.1-4.1,8.2c-0.2,3,0.7,5.9,3.6,8.8c1.7,1.7,3.6,3.1,5.7,4.3c2.4,1.4,5.3,2.9,8.8,4.5
		c1.7,0.8,3.4,1.6,5,2.4c0.8,0.4,1.6,0.8,2.3,1.2l2.1,1.2c2.7,1.4,5.1,3.4,7.2,5.7c0.5,0.6,0.9,1.2,1.3,1.9c0.3,0.6,0.6,1.2,0.9,1.9
		C324.9,47.8,325.2,49.1,325.4,50.3L325.4,50.3z"/>
	<path class="st1" d="M333.2,15.6c0-1.8-0.2-3.6-0.6-5.4c-0.2-1.2-0.6-2.4-1-3.5c-1-2.6-3.6-4.3-6.5-4.1V1.2c1.8,0,3.7,0.3,5.4,0.8
		c1.5,0.4,2.9,1.1,4.1,1.9c1.5,1,2.7,2.4,3.6,4c1.3,2.4,1.9,5,1.9,7.7v46.1c0,2.6,1.1,5.1,3,6.8l0.3,0.3h-13.5l0.3-0.3
		c1.9-1.8,3-4.2,3-6.8L333.2,15.6z"/>
	<path class="st1" d="M389.2,35.8c4,7.1,4,15.7,0,22.7c-1.3,2.2-3.1,4.2-5.1,5.7c-1.8,1.3-3.7,2.3-5.8,3.1c-2,0.7-4,1.2-6.1,1.4
		c-0.7,0.1-1.3,0.1-2,0.1h-0.1c-0.7,0-1.3,0-2-0.1c-2.1-0.2-4.1-0.7-6.1-1.4c-2.1-0.7-4-1.8-5.8-3.1c-2.1-1.5-3.8-3.5-5.1-5.7
		c-4-7.1-4-15.7,0-22.7c1.3-2.2,3.1-4.2,5.1-5.7c1.8-1.3,3.7-2.3,5.8-3.1c2-0.7,4-1.2,6.1-1.4c0.7-0.1,1.3-0.1,2-0.1h0
		c0.7,0,1.3,0,2,0.1c2.1,0.2,4.1,0.7,6.1,1.4c2.1,0.7,4,1.8,5.8,3.1C386.1,31.6,387.8,33.5,389.2,35.8L389.2,35.8z M383.6,55.8
		c2-5.6,2-11.8,0-17.4c-0.7-1.9-1.5-3.7-2.6-5.4c-1-1.6-2.3-2.9-3.8-4c-2.1-1.4-4.5-2.2-7.1-2.2h0l-0.1,0c-2.5,0-4.9,0.8-7,2.2
		c-1.5,1.1-2.8,2.4-3.8,4c-1.1,1.7-2,3.5-2.6,5.4c-2,5.6-2,11.8,0,17.4c0.7,1.9,1.5,3.7,2.6,5.4c1,1.6,2.3,2.9,3.8,4
		c2.1,1.4,4.5,2.2,7,2.2h0l0.1,0c2.5,0,4.9-0.8,7-2.2c1.5-1.1,2.8-2.4,3.8-4C382.1,59.5,383,57.7,383.6,55.8L383.6,55.8z"/>
	<path class="st1" d="M407.2,26.8v26.7h0c0,1.9,0.2,3.8,0.4,5.7c0.1,1.3,0.4,2.5,0.7,3.7c0.3,1.1,0.8,2.1,1.6,3
		c1.1,1.1,2.7,1.7,4.2,1.6v1.4c-1.9,0.1-3.7-0.3-5.5-1c-1.4-0.6-2.7-1.4-3.8-2.5c-1.3-1.2-2.4-2.6-3.1-4.2c-1.1-2.4-1.6-5-1.6-7.6h0
		V26.8H395c6.4-2.7,12.3-15,12.3-15v13.6h7.9v1.4H407.2z"/>
	<path class="st1" d="M447.5,61.1c-1,2.5-2.8,4.6-5.3,5.8c-2.5,1.2-5.2,1.8-7.9,1.9c-0.4,0-0.8,0-1.1,0h-0.1c-1.8,0-3.7-0.2-5.4-0.6
		c-3.4-0.8-6.5-2.6-9-5.2c-0.5-0.5-0.1-1.6,1-2.3c0.7-0.5,1.4-0.8,2.1-1.2c1.2-0.5,2.1-0.6,2.3-0.2c0.9,2.5,2.5,4.8,4.6,6.5
		c1.3,1,2.8,1.5,4.5,1.5c0,0,0.1,0,0.2,0c2.8,0.1,5.5-0.8,7.7-2.5c1.5-1.2,2.3-2.9,2.4-4.8c0-0.9-0.1-1.7-0.4-2.5
		c-0.2-0.4-0.4-0.8-0.6-1.2c-0.1-0.2-0.3-0.4-0.4-0.5c-0.1-0.1-0.3-0.3-0.4-0.4c-1.1-0.8-2.2-1.5-3.5-2.1c-1.7-0.9-3.4-1.7-5.7-2.7
		c-4.4-2.1-8.2-4.4-10.5-7.5c-1.1-1.4-1.9-3.1-2.2-4.9c-0.3-1.5-0.1-3.1,0.3-4.5c0.8-2.5,2.6-4.7,4.9-6.1c2.7-1.6,5.9-2.3,9-2.2h0
		c1.9,0,3.7,0.2,5.5,0.7c1.7,0.5,3.3,1.4,4.7,2.6c1.4,1.2,2.6,2.6,3.6,4.2c0.4,0.6-0.2,1.6-1.5,2.1c-0.8,0.3-1.6,0.5-2.4,0.6
		c-1.3,0.2-2.2,0.2-2.3-0.3c-0.2-2.6-1.4-5-3.3-6.8c-1.2-1-2.8-1.6-4.4-1.6h0c-0.4,0-0.8,0-1.3,0h0c-2.4,0.1-4.6,1-6.4,2.6
		c-1.4,1.3-2.1,3.1-2.1,5c0.1,1.8,0.9,3.5,2.4,4.7c1.7,1.6,4.5,3.1,8.9,5.2c2,0.9,4,2,5.9,3.2c1.8,1,3.4,2.3,4.8,3.9
		c0.3,0.4,0.6,0.9,0.9,1.4c0.6,1.2,1,2.5,1.1,3.9C448.2,58.2,448,59.7,447.5,61.1z"/>
</g>
</svg>
