<?xml version="1.0" encoding="utf-8"?>
<!-- Generator: Adobe Illustrator 26.0.0, SVG Export Plug-In . SVG Version: 6.00 Build 0)  -->
<svg version="1.1" id="Layer_1" xmlns="http://www.w3.org/2000/svg" xmlns:xlink="http://www.w3.org/1999/xlink" x="0px" y="0px"
	 viewBox="0 0 340 70" style="enable-background:new 0 0 340 70;" xml:space="preserve">
<style type="text/css">
	.st0{fill:#FFFFFF;}
	.st1{fill:#CD4327;}
</style>
<g>
	<g>
		<path class="st0" d="M151.5,61.6c0-1.2,0.4-2.1,1.3-3c0.9-0.8,1.9-1.3,3.4-1.3H168l-0.9,2.7h-10c-0.5,0-1,0.1-1.4,0.5
			c-0.4,0.4-0.5,0.8-0.5,1.4v3.2c0,0.5,0.3,1,0.6,1.4s0.9,0.5,1.6,0.5h6.6c0.5,0,0.9-0.1,1.2-0.3c0.3-0.3,0.3-0.5,0.3-1v-0.9h-4.5
			l0.8-2.5h6.9v4c0,1-0.4,1.8-1.2,2.6c-0.8,0.6-1.7,1-2.9,1h-8.3c-1.4,0-2.6-0.4-3.4-1.3c-0.9-0.9-1.3-1.8-1.3-3V61.6z"/>
		<path class="st0" d="M186.8,68.2l-1,1.8h-3.9l7.5-12.6h3.8l7.5,12.6h-4l-1-1.8H186.8z M194.2,65.8l-3.1-5.2l-3,5.2H194.2z"/>
		<path class="st0" d="M221.3,69.9h-3l-4.3-7.1v7.4h-3.4V57.5h3.5l5.7,9.3l5.7-9.3h3.5v12.6h-3.5v-7.4L221.3,69.9z"/>
		<path class="st0" d="M250.5,57.4V70H247V57.4H250.5z"/>
		<path class="st0" d="M285.4,70h-3.5l-9-8.2V70h-3.5V57.4h3.5l9,8.3v-8.3h3.5V70z"/>
		<path class="st0" d="M301.2,61.6c0-1.2,0.4-2.1,1.3-3c0.9-0.8,1.9-1.3,3.4-1.3h11.8l-0.9,2.7h-10c-0.5,0-1,0.1-1.4,0.5
			c-0.4,0.4-0.5,0.8-0.5,1.4v3.2c0,0.5,0.3,1,0.6,1.4c0.4,0.4,0.9,0.5,1.6,0.5h6.6c0.5,0,0.9-0.1,1.2-0.3c0.3-0.3,0.3-0.5,0.3-1
			v-0.9h-4.3l0.8-2.5h6.9v4c0,1-0.4,1.8-1.2,2.6c-0.8,0.6-1.8,1-2.9,1h-8.3c-1.4,0-2.6-0.4-3.4-1.3c-0.9-0.9-1.3-1.8-1.3-3v-4.3
			C301.5,61.6,301.2,61.6,301.2,61.6z"/>
	</g>
	<path class="st1" d="M31.2,27.1c-2.9,0-5.2-0.9-7-2.7c-1.8-1.8-2.7-4-2.7-6.5s0.9-4.5,2.7-6.4c1.7-1.7,4-2.6,7-2.6h19.3v6.4H32.2
		c-0.6,0-1.2,0.3-1.6,0.6c-0.5,0.6-0.8,1.2-0.8,1.8c0,0.5,0.3,1,0.6,1.6c0.5,0.4,1,0.6,1.7,0.6h11.7c3,0,5.3,0.9,7.1,2.7
		c1.8,1.8,2.7,4,2.7,6.5c0,2.6-0.9,4.8-2.7,6.6c-1.8,1.8-4.3,2.9-7.1,2.9H23.1v-6.4h20.5c0.8,0,1.4-0.3,1.9-0.8
		c0.5-0.5,0.8-1.2,0.8-1.8s-0.3-1.3-0.8-1.8c-0.5-0.5-1-0.8-1.8-0.8C43.7,27.1,31.2,27.1,31.2,27.1z"/>
	<rect x="96.5" y="9" class="st1" width="8" height="29.6"/>
	<polygon class="st1" points="144.4,38.6 136.2,38.6 119.7,19.4 119.7,38.6 111.6,38.6 111.6,9 119.7,9 136.2,28.5 136.2,9 144.4,9 
			"/>
	<path class="st0" d="M200.8,47.9c-1.4,0-2.7-0.4-4-1L183.9,39c-2.5-1.4-4-4-4-6.9v-16c0-2.9,1.6-5.6,4-7l13.8-7.9
		c2.5-1.4,5.6-1.4,8,0l13.8,7.9c2.5,1.4,4,4.2,4,7V32c0,2.9-1.6,5.6-4,7L205,46.9C203.5,47.5,202.1,47.9,200.8,47.9z M201.6,1.9
		c-1,0-2.2,0.3-3.1,0.9l-13.8,7.9c-1.9,1.2-3.1,3.2-3.1,5.4V32c0,2.2,1.2,4.4,3.1,5.4l12.8,7.9c1.9,1.2,4.4,1.2,6.4,0l14.5-7.9
		c1.9-1.2,3.1-3.2,3.1-5.4V16.2c0-2.2-1.2-4.4-3.1-5.4l-13.8-7.9C203.8,2.1,202.8,1.9,201.6,1.9z M176.4,32v6.7h-24.9V9h8v23
		C159.6,32,176.4,32,176.4,32z M279.6,9v29.6h-8V9H279.6z M318.2,38.6h-20c-3.2,0-6-1-7.9-3c-1.9-1.9-3-4.3-3-6.9v-9.9
		c0-2.7,1-4.9,3-6.9c1.9-1.9,4.7-3,8-3h20v6.5h-17.9c-1.4,0-2.6,0.4-3.5,1.3c-0.9,0.8-1.3,1.9-1.3,3.2v7.5c0,1.3,0.5,2.5,1.4,3.2
		s2.1,1.2,3.5,1.2h17.9v6.6H318.2z M228.8,18.9c0-2.7,1-4.9,3-6.9s4.7-3,8-3h21.7l-2.2,6.5h-17.6c-1.3,0-2.5,0.4-3.4,1.3
		c-0.9,0.8-1.3,1.9-1.3,3.2v7.5c0,1.3,0.5,2.5,1.4,3.2c0.9,0.8,2.1,1.2,3.5,1.2h9.6c1.3,0,2.2-0.3,2.6-0.8c0.5-0.5,0.8-1.3,0.8-2.5
		v-2.1h-9.1v-5.8H263v9.3c0,2.3-0.9,4.3-2.7,6c-1.8,1.7-4.2,2.5-6.7,2.6h-13.6c-3.2,0-6-1-8-3c-1.9-1.9-3-4.3-3-6.9L228.8,18.9
		L228.8,18.9z M204.3,29.6c0-4.2,1.6-4.8,3.2-5.7l10.6-5.8v3.6l-7.7,4.2c-0.6,0.4-1.2,0.9-1.7,1.6c-0.4,0.6-0.6,1.4-0.6,2.2v4.2
		c0,0.8,0.3,1.2,0.6,1.4c0.5,0.1,1,0.1,1.7-0.3l3.1-1.7c0.6-0.4,1-0.8,1.3-1.2c0.3-0.4,0.4-0.9,0.4-1.6v-1.2l-4.4,2.5v-3.2l8.4-4.5
		v5.2c0,1.3,0,4.5-3.5,6.6l-6.2,3.5c-1.7,0.9-3,1-3.9,0.5c-1-0.5-1.4-1.6-1.4-3V29.6z M198.1,36.8v4.5l-12.8-7.4V18.6l4.5,2.6v10.6
		L198.1,36.8z"/>
	<path class="st0" d="M200.3,15.2c-1.3,0.8-3,1-4.8,1c-1.8,0-3.5-0.4-4.9-1.2c-1.4-0.6-2.2-1.6-2.3-2.5c-0.1-0.9,0.4-1.7,1.8-2.5
		l9.5-5.4l3.6,1.8l-9.1,5.2c-0.3,0.1-0.4,0.4-0.4,0.6c0,0.3,0.3,0.4,0.6,0.6c0.4,0.1,0.8,0.3,1.2,0.3c0.5,0,0.9-0.1,1.2-0.3l5.4-3
		c1.4-0.8,3-1,4.9-1s3.6,0.4,5.1,1.2c1.4,0.8,2.3,1.6,2.5,2.6c0.3,1-0.4,1.8-1.7,2.6l-10.8,5.7l-3.6-1.8l10.6-5.7
		c0.4-0.1,0.5-0.4,0.4-0.6c0-0.3-0.3-0.5-0.6-0.6c-0.4-0.3-0.9-0.3-1.4-0.3c-0.5,0-0.9,0-1.3,0.3L200.3,15.2z"/>
	<path class="st1" d="M89.8,9H59.3v23.2h8v-8.6h13c3.1,0,5.8-1,7.8-3.1c1.9-2.1,3-4.4,3-7.3C91.1,10.7,89.8,9,89.8,9z M79.2,17.2
		H67.3v-5.3l0,0v-1.2h11.9c3.1,0,3.8,2.2,3.8,3.1C83,14.9,82.4,17.2,79.2,17.2z"/>
	<path class="st1" d="M89.6,38.6c-0.4-0.6-0.9-1.3-1.6-1.9c-1.9-1.9-4.5-3-7.8-3h-21l-0.1,4.9H89.6z"/>
	<g>
		<polygon class="st0" points="183.7,14.5 183,14.7 199.6,23.8 199.8,23.8 200.2,23.4 		"/>
		<polygon class="st0" points="218.5,14.5 202.1,23.3 202,23.4 202.4,23.8 219.1,14.7 		"/>
		<path class="st0" d="M200.8,43.9c0,0.1,0.1,0.3,0.3,0.3c0.1,0,0.3-0.1,0.3-0.3V25.1h-0.5V43.9z"/>
	</g>
</g>
</svg>
