<?xml version="1.0" encoding="utf-8"?>
<!-- Generator: Adobe Illustrator 26.0.0, SVG Export Plug-In . SVG Version: 6.00 Build 0)  -->
<svg version="1.1" id="Layer_1" xmlns="http://www.w3.org/2000/svg" xmlns:xlink="http://www.w3.org/1999/xlink" x="0px" y="0px"
	 viewBox="0 0 100 20" style="enable-background:new 0 0 100 20;" xml:space="preserve">
<style type="text/css">
	.st0{fill:#001C04;}
</style>
<g>
	<path class="st0" d="M0,0v20h100V0H0z M15,17.8l-5-3.7l-5,3.7l1.9-5.9l-5-3.7h6.2L10,2.2l1.9,5.9h6.2l-5,3.7L15,17.8z M35,17.8
		l-5-3.7l-5,3.7l1.9-5.9l-5-3.7h6.2L30,2.2l1.9,5.9h6.2l-5,3.7L35,17.8z M55,17.8l-5-3.7l-5,3.7l1.9-5.9l-5-3.7h6.2L50,2.2l1.9,5.9
		h6.2l-5,3.7L55,17.8z M75,17.8l-5-3.7l-5,3.7l1.9-5.9l-5-3.7h6.2L70,2.2l1.9,5.9h6.2l-5,3.7L75,17.8z M95,17.8l-5-3.7l-5,3.7
		l1.9-5.9l-5-3.7h6.2L90,2.2l1.9,5.9h6.2l-5,3.7L95,17.8z"/>
</g>
</svg>
